<svg enable-background="new 0 0 300 300" height="300" viewBox="0 0 300 300" width="300" xmlns="http://www.w3.org/2000/svg"><path d="m265.8279724 21.2862358c-80.392395 45.9385262-160.78479 91.8770447-241.1771851 137.8154449-6.8999138 3.9429169-6.2835655 14.0861969 1.0430126 17.1646271 17.0869389 7.1794128 34.1737518 14.3587036 51.2606812 21.5381317 4.6666031 1.9606628 10.0412064 1.1061096 13.8695526-2.2052612l146.685854-126.8802299-122.5398254 147.0478058c-2.1194763 2.543457-3.2155457 5.7853394-3.0741425 9.0932922l1.9634933 45.9451294c.372139 8.7090149 11.2316284 12.4432678 16.8813248 5.8049622l35.7860565-42.0487976c21.2294617 8.7850952 42.4589233 17.5702057 63.6883698 26.3551941 5.7049561 2.3607483 12.1214752-1.2069702 13.1266327-7.298645l36.7035828-222.445694c1.3145446-7.9675618-7.2062379-13.8923455-14.2174073-9.8859597z" fill="#003d87"/></svg>