<svg enable-background="new 0 0 24 24" height="24" viewBox="0 0 24 24" width="24" xmlns="http://www.w3.org/2000/svg"><g fill="#00a87b"><path d="m4.2222099 19.7775002c.46387.4645996 1.0149603.8328991 1.6216102 1.0837994s1.2568998.3794002 1.9133897.3782004c.65662.0011997 1.3070107-.1273994 1.9138203-.3782997.6067696-.2509003 1.1580696-.6191006 1.6221695-1.0837002l2.8280001-2.8290005-1.4139996-1.4139996-2.8279896 2.8290005c-.5635309.560999-1.3263302.8759995-2.1215005.8759995-.7951798 0-1.55797-.3150005-2.1215-.8759995-.5615001-.5632-.8768001-1.3261013-.8768001-2.1215 0-.7953005.3153-1.5582008.8768001-2.121501l2.829-2.8280001-1.414-1.41397-2.829 2.8279705c-.9361999.9385004-1.4619598 2.21-1.4619598 3.5355005-.0000001 1.3255999.5257598 2.5970995 1.4619597 3.5354998zm15.5559902-8.4850007c.9356995-.9386997 1.4610996-2.2100496 1.4610996-3.5354695 0-1.3254099-.5254002-2.5967798-1.4610996-3.5355-.9384995-.9361899-2.2098999-1.4619501-3.5354996-1.4619501s-2.597.5257602-3.5355004 1.4619501l-2.8279896 2.829 1.4139891 1.414 2.8280001-2.829c.5635004-.5609999 1.3263006-.8759699 2.121501-.8759699s1.5579987.31497 2.1215.8759699c.5614986.5632801.8767986 1.32617.8767986 2.1215 0 .7953401-.3153 1.5582299-.8767986 2.1214995l-2.8290005 2.8279705 1.4139996 1.4139996z"/><path d="m8.46383 16.9494991-1.415-1.4139996 8.48697-8.4859995 1.4140005 1.4150004z"/></g></svg>