<svg enable-background="new 0 0 29 28" height="28" viewBox="0 0 29 28" width="29" xmlns="http://www.w3.org/2000/svg"><path clip-rule="evenodd" d="m14.3999004 0c7.7320004 0 14 6.2680101 14 14 0 7.7320004-6.2679996 14-14 14-7.7319803 0-13.9999984-6.2679996-13.9999984-14 0-7.7319899 6.2680181-14 13.9999984-14zm0 25.8999996c.7090998 0 1.9162998-.6294003 3.0714989-2.9396992.5174999-1.0349998.9549999-2.2900009 1.2723007-3.7082005h-8.6876001c.3172998 1.4181995.7547998 2.6732006 1.2723999 3.7082005 1.1550999 2.310299 2.3622999 2.9396992 3.0714006 2.9396992zm-4.70685-8.7479c-.1252108-.9995994-.1931505-2.0552997-.1931505-3.1520996 0-1.0965996.0679102-2.1520004.1930704-3.1513996h9.4138298c.1252003.9993992.1931 2.0548.1931 3.1513996 0 1.0967999-.0678997 2.1525002-.1931 3.1520996zm11.197649 2.1000004c-.472599 2.3337002-1.2507 4.3546009-2.2350998 5.8642998 2.809-1.0760002 5.1061001-3.1861 6.4256001-5.8642998zm4.9777012-2.0653992c-.085701-.0226002-.1757011-.0346012-.2685013-.0346012h-4.3780994c.1165008-1.0130997.1781005-2.0681991.1781005-3.1520996 0-1.0836-.0615997-2.1385002-.1781006-3.1513996h4.6562996c.2749996 1.0036993.4218006 2.0604.4218006 3.1513996.0000001 1.1037998-.1503009 2.1725006-.4314994 3.1867008zm-18.2903605-.0346012h-4.6562001c-.27506-1.0039997-.4219399-2.0608997-.4219399-3.1520996 0-1.0909996.1468198-2.1477003.4217699-3.1513996h4.65629c-.1164999 1.0128994-.17806 2.0677996-.17806 3.1513996 0 1.0839005.0615902 2.1389999.1781401 3.1520996zm-3.8594 2.1000004h4.1905098c.4725494 2.3337002 1.2506294 4.3546009 2.2350502 5.8642998-2.8090003-1.0760002-5.1061199-3.1861-6.42556-5.8642998zm6.3373597-10.50352h8.6877995c-.3171997-1.4184899-.7549-2.67377-1.2723999-3.70893-1.1551991-2.3102601-2.3623991-2.9396501-3.0714989-2.9396501-.7091007 0-1.9163008.62939-3.0714006 2.9396501-.5176002 1.03516-.9552995 2.29044-1.2725001 3.70893zm10.8348007 0h4.1906986c-1.3193989-2.6785898-3.6166992-4.7889099-6.4258995-5.8650198.9845009 1.50984 1.7625999 3.5310097 2.2352009 5.8650198zm-10.7466002-5.8650201c-.9845104 1.5098403-1.76264 3.53101-2.2351804 5.8650201h-4.19069c1.3193803-2.6785898 3.6166501-4.7889099 6.4258704-5.8650201z" fill="#fff" fill-rule="evenodd"/></svg>