<svg enable-background="new -105 107 300 300" height="300" viewBox="-105 107 300 300" width="300" xmlns="http://www.w3.org/2000/svg"><g fill="#2d8cff"><path d="m45 191.6239014c15.4735985 0 29.7772522 7.1429901 41.6705627 17.8487549 11.9109802 10.7233582 17.8664322 26.197052 17.8664322 41.6881561 0 7.6319733-1.743866 14.9730682-4.7917252 21.8847198l35.6477814 35.6477966c18.7465821-15.0506591 32.3712159-34.960968 41.6069489-57.5237731-10.8064117-26.4000092-27.596817-48.0127716-51.603157-64.8031616-23.9888382-16.8079835-50.388855-25.2032166-80.396843-25.2032166-17.3608532 0-33.507576 2.8288116-48.684967 8.4521179l26.3583603 26.3583679c7.063385-2.8945465 14.6957931-4.3497619 22.3266067-4.3497619z"/><path d="m152.5746765 356.0115967-212.3217888-212.3217926-14.2986031 14.2986908 32.7441635 32.7441559c-20.8736533 16.1186218-35.803894 36.2645416-45.6984481 60.4369049 10.8064194 26.4000244 27.5968132 47.9952698 51.6031532 64.785675 23.9888392 16.8079529 50.388856 25.2032166 80.3968468 25.2032166 19.1401443 0 36.8029327-3.926239 53.3163834-10.8078613l39.9596024 39.9595947zm-107.5746765-45.3138733c-15.4736843 0-29.7772484-5.9553833-41.6706429-17.866272-11.9108992-11.9109802-17.8663502-26.1969604-17.8663502-41.670639 0-9.3886566 2.6362829-18.3300323 7.0906467-26.5729523l18.8071575 18.8071594c-.6680746 2.516861-1.0371609 5.1098938-1.0371609 7.7657928 0 9.0124054 3.4686193 17.3330841 10.405942 24.270401 6.9271404 6.937317 15.2580062 10.4059449 24.2704078 10.4059449 2.6542892 0 5.3074875-.3092651 7.8920174-.9109497l19.1911354 19.1911621c-8.3232041 4.3771057-17.7028427 6.5803528-27.0831528 6.5803528z"/><path d="m79.6763535 251.1608124c0-9.0225983-3.4686203-18.0349884-10.4060287-24.2805939-6.9270593-6.2354279-15.2579232-10.3957672-24.2703248-10.3957672-.590065 0-1.179966.0167542-1.7693596.0464478l36.3906746 36.390686c.0350952-.5839234.0550385-1.1707153.0550385-1.7607727z"/></g></svg>