<svg enable-background="new -105 107 300 300" height="300" viewBox="-105 107 300 300" width="300" xmlns="http://www.w3.org/2000/svg"><g fill="#2d8cff"><path d="m75.6302872 226.3804016c-8.7697983-8.7698822-18.9728508-13.1333618-30.6302872-13.1333618-4.1527672 0-8.1201515.5672607-11.90728 1.6792297 4.2677994 4.2948151 6.4001884 9.2980957 6.4001884 15.022644 0 5.7411957-2.1489639 10.766098-6.4574966 15.0746307s-9.3439579 6.4680176-15.0851593 6.4680176c-5.7117472 0-10.7132616-2.1309509-15.0173321-6.4057465-1.1100358 3.7892456-1.6752779 7.7615051-1.6752779 11.9248657 0 11.6574402 4.3635654 21.8605042 13.1120701 30.6089172 8.7697966 8.7698671 18.9727671 13.133362 30.6302874 13.133362 11.6574364 0 21.8818665-4.3849487 30.6302872-13.1333618s13.1119843-18.9514771 13.1119843-30.6089172c-.0000001-11.6788025-4.3635636-21.8818665-13.1119843-30.6302796z"/><path d="m125.396843 192.2055817c-23.9888382-16.8079682-50.388855-25.2032166-80.396843-25.2032166s-56.4080086 8.3952484-80.3968506 25.2032166c-24.0063362 16.7904052-40.79673 38.4031524-51.6031494 64.8031768 10.8064194 26.4000244 27.5968132 47.9952698 51.6031532 64.7856445 23.9888392 16.8079835 50.388856 25.2032166 80.3968468 25.2032166s56.4080048-9.5920105 80.396843-25.2032166c24.00634-15.5935973 40.7967453-38.38562 51.603157-64.7856445-10.8064117-26.4000244-27.596817-48.0127716-51.603157-64.8031768zm-34.0829163 111.1084442c-11.8987808 13.2381286-29.1160736 19.8570862-46.3139267 19.8570862-17.197937 0-33.0953217-6.6189575-46.3140106-19.8570862-13.2381306-13.2382202-19.8571949-29.1160889-19.8571949-46.3140259 0-17.2172852 7.9389734-33.0953217 19.857193-46.3334503 11.8987817-13.218689 29.1160755-19.837677 46.3140125-19.837677 17.1978531 0 33.0953217 7.9388885 46.3139267 19.837677 13.2382126 11.9182129 19.8572769 29.1161651 19.8572769 46.3334503 0 17.197937-7.9390564 33.0758972-19.8572769 46.3140259z"/></g></svg>