<svg enable-background="new 0 0 50 50" height="50" viewBox="0 0 50 50" width="50" xmlns="http://www.w3.org/2000/svg"><circle cx="25.5" cy="25.5" fill="#00a87b" r="14.5"/><path d="m25 50c-13.8058004 0-25-11.1941986-25-25s11.1941996-25 25-25 25 11.1941996 25 25-11.1941986 25-25 25zm8.0413017-25.3850002-12.1875019-8.8671999c-.0667992-.0480003-.1455994-.0767002-.2276001-.0829-.0820999-.0060997-.1641998.0103998-.2374992.0479002-.0732002.0375004-.1347008.0944996-.1777.1646004-.0430012.0702-.0657997.1507998-.0659008.2330999v17.7231979c-.0002995.0824013.0223007.1634026.0652008.2338028s.1043987.1274986.1777992.1651001c.0734005.0374985.1557999.053997.2380009.047699.0821991-.0064011.1609993-.0354004.2276993-.0839005l12.1875019-8.861599c.0575981-.0407009.1044998-.0946007.1369972-.1573009.032402-.0625992.0493011-.1320992.0493011-.2026005 0-.0704994-.0168991-.1399994-.0493011-.2026997-.0324975-.0625992-.0793992-.1164989-.1369973-.1571998z" fill="#fff"/></svg>