<svg enable-background="new 0 0 100 100" height="100" viewBox="0 0 100 100" width="100" xmlns="http://www.w3.org/2000/svg"><path d="m93.3810425 14.2840576c-2.6730957 1.7121887-8.8105164 4.2003174-11.8373108 4.2003174v.0050964c-3.456131-3.6104431-8.3219147-5.8644714-13.7182312-5.8644714-10.480835 0-18.979599 8.4987793-18.979599 18.9754944 0 1.4556885.1686707 2.8755188.4804382 4.2371216h-.0030823c-14.2170563-.3730774-29.766098-7.4990234-39.1265717-19.6951599-5.7551117 9.9615479-.7748413 21.0403748 5.756134 25.0771484-2.2355804.1686707-6.3510437-.2575989-8.2881927-2.1476746-.1298218 6.6117249 3.0492859 15.3721924 14.6412811 18.5502625-2.2325287 1.2011108-6.1844177.8566284-7.9027863.6011047.6031189 5.5812988 8.4190063 12.8779602 16.9658356 12.8779602-3.046234 3.5235901-14.5073699 9.9145203-27.3689574 7.8813172 8.7348633 5.3144836 18.9152069 8.3924255 29.6904297 8.3924255 30.6206665 0 54.4006195-24.8164673 53.1207886-55.4310303-.0050964-.0337219-.0050964-.0674744-.0081635-.1042786.003067-.0787048.0081635-.1574097.0081635-.2391968 0-.0950928-.0081635-.1849976-.0112305-.2770081 2.7876129-1.9064635 6.5279083-5.2787474 9.2000122-9.717224-1.5496979.8535461-6.1987762 2.5626831-10.5247955 2.9869385 2.7763519-1.4985962 6.8897552-6.4063111 7.905838-10.3091431" fill="#003d87"/></svg>