<svg enable-background="new 0 0 323 201" height="201" viewBox="0 0 323 201" width="323" xmlns="http://www.w3.org/2000/svg" xmlns:xlink="http://www.w3.org/1999/xlink"><clipPath id="a"><path d="m0 0h323v201h-323z"/></clipPath><linearGradient id="b" gradientTransform="matrix(1 0 0 -1 0 202)" gradientUnits="userSpaceOnUse" x1="202.963837" x2="25.342337" y1="122.768921" y2="48.169441"><stop offset="0" stop-color="#7342e4"/><stop offset="1" stop-color="#fcd9fb"/></linearGradient><g clip-path="url(#a)"><path d="m15.2749996 85.8740997s-3.9724998-.282196-3.5941992 8.5121002c.3783998 8.7947998 1.2768993 13.4968033 1.2768993 13.4968033s-.0945997 1.9759979-1.6552 1.5519943c-1.51332-.3759995-4.3980999-2.3040009-5.8168397-.8460007-1.4660301 1.4580002-.9458199 3.715004.9931197 6.3960037 1.9389505 2.6800003 6.0060205 8.6529999 6.3370199 9.2170029.3783998.5179977.5202007 1.5519943-.5675001 1.4580002-1.0876999-.0940018-8.3705397-2.5390015-9.31637.9409943-.9458295 3.5270081 5.6749602 10.0169983 6.3843308 10.7689972.7093401.7060089.7566395 1.1760101.4729195 1.6460114-.2837496.423996-2.6483197-.6110077-4.7764297-1.2220001-2.0808201-.6119995-4.6345539-.9410095-5.0128846 1.1279907-.3783305 2.0700073 2.5537345 8.1360016 13.478034 14.4850006l5.2493 2.6340027 5.0129013-3.151001c10.2622986-7.4309998 12.5794983-13.7330017 11.9646988-15.7550049-.6147003-2.0219879-3.0738983-1.4109955-5.107399-.6109924-2.0335999.798996-4.2562008 2.1159973-4.5873013 1.6929932-.3309994-.4229889-.3309994-.8939972.2838001-1.6459961.6147003-.8000031 6.5735016-7.947998 5.2966003-11.3339996-1.3241997-3.3860016-8.3232994-.2350006-9.363699 0-1.0404015.1880035-1.0404015-.8000031-.7094002-1.3639984.2838001-.564003 3.7360992-6.9599991 5.3913002-9.7819977 1.6550999-2.8220062 1.9389-5.1260071.3309994-6.4430008-1.5606003-1.2690048-4.2089005.8939972-5.6750011 1.4580002-1.4659996.5169983-1.796999-1.4110031-1.796999-1.4110031s.4256001-4.75-.0946007-13.5438995c-.5201988-8.7943039-4.54-8.0888977-4.54-8.0888977" fill="#ebebeb"/><path d="m15.5586004 93.7743988v.1881027s.0472994.3292007.0472994.5172958c.0473003.4703064.0945997 1.1758041.1419001 2.0693054.1417999 1.7870941.2837 4.4208984.4728994 7.6658936.3783016 6.4900055.8038998 15.4250031 1.2294998 25.2539978.4257011 9.8760071.8513012 18.8110046 1.1350002 25.3010101.141901 3.2449951.2838001 5.8320007.3784008 7.6660004.0473003.8939972.0946007 1.598999.0946007 2.0690002v.5650024.1879883s0-.0469971 0-.1879883c0-.1410065-.0473003-.3300018-.0473003-.5180054-.0473003-.4700012-.0946007-1.1750031-.141901-2.0690002-.1418991-1.7870026-.2838001-4.4210052-.4729004-7.6660004-.3783989-6.4889984-.8039989-15.4250031-1.229599-25.3009949-.4256001-9.8760071-.8512001-18.8110046-1.1350002-25.3010101-.1419001-3.2449951-.2837-5.8317947-.3782997-7.6658936-.0473003-.8935013-.0945997-1.598999-.0945997-2.0693054 0-.2350998 0-.4231949 0-.5643005-.0000001-.0940932-.0000001-.1410979-.0000001-.1410979z" fill="#e0e0e0"/><path d="m9.4106398 111.4580002s.14188.0940018.3310404.2819977c.1891699.1880035.4729195.4700012.8512201.8000031.7094002.7050018 1.6078997 1.6459961 2.6483002 2.7269974.9931993 1.0820007 1.8916998 2.0699997 2.6011 2.8219986.3309994.3290024.5674992.6110001.8038998.8470001.1891994.1880035.2838001.3290024.2838001.3290024s-.141901-.0940018-.3311005-.2819977c-.1891003-.189003-.4729004-.4710007-.8512001-.8000031-.7094002-.7050018-1.6078997-1.6930008-2.6009998-2.7750015-.9932003-1.0809937-1.8916998-2.0219955-2.6011-2.7739944-.3310003-.3290024-.5674601-.6119995-.8039198-.8470001-.2364503-.2350007-.3310404-.3290025-.3310404-.3290025z" fill="#e0e0e0"/><path d="m17.3558006 119.0759964c-.0473003-.0469971 1.8916988-2.0689926 4.3034992-4.4669952 2.4118996-2.4459991 4.3980999-4.3740005 4.4454002-4.3270035.0473003.0470047-1.8915997 2.0690002-4.3034992 4.4680023-2.4118003 2.3980026-4.3981017 4.3730011-4.4454002 4.3259964z" fill="#e0e0e0"/><path d="m17.3560009 134.2669983s.1417999-.0939941.3782997-.2350006c.283699-.1409912.6147995-.3289948 1.0403996-.5650024.8512001-.4700012 2.0807991-1.1749878 3.3577003-1.9749908 1.2768002-.7990112 2.4590988-1.552002 3.2630997-2.1159973.3782997-.2350006.7094002-.4700012.9930992-.6580048.2364998-.1419983.3782997-.2360077.3782997-.2360077s-.0944996.0940094-.3309994.2830048c-.2364998.1880035-.5201988.4230042-.9457989.7050018-.8040009.5639954-1.9390011 1.3639984-3.2631016 2.1629944-1.3241997.8000031-2.5064983 1.4580078-3.4049988 1.9290009-.4256001.2350006-.8040009.4230042-1.0403996.5169983-.2838.1410063-.4255999.1880034-.4255999.1880034z" fill="#e0e0e0"/><path d="m8.6068897 128.9519958s.1418705.0469971.3783302.1880035.5674896.2830048.9458303.5180054c.8039494.4700012 1.8916492 1.0809937 3.1212502 1.7870026 1.2296.7049866 2.3172998 1.3639984 3.0738993 1.8809967.3782997.2350006.7094002.4229889.9458008.5639954.2364998.1410065.3310986.2350006.3310986.2350006s-.1418991-.0469971-.3782997-.1880035c-.2364998-.1409912-.5674992-.2819977-.9459-.5169983-.8038998-.4700012-1.8915997-1.0820007-3.1211996-1.7870026-1.2296-.7059937-2.3172998-1.3639984-3.0739498-1.8809967-.3783302-.2350006-.7093697-.423996-.9458199-.5650024-.1891699-.1409913-.3310404-.2350007-.3310404-.2350007z" fill="#e0e0e0"/><path d="m6.9043002 142.3549957s.1891599.0469971.4729099.2360077c.3310399.1880035.75666.4230042 1.2295794.6579895 1.04041.5640106 2.4591103 1.3640137 4.0198107 2.3040009 1.5605993.8940125 2.9792995 1.7400055 3.9724007 2.352005.4728985.2819977.8985996.5169983 1.1822987.7050018.2838001.1880035.4256001.2819977.4256001.2819977s-.1891003-.0469971-.4729004-.2350006c-.3309994-.1880035-.7565994-.4230042-1.229599-.6580048-1.0404005-.5639954-2.4591007-1.3639984-4.0197001-2.3049927-1.5606003-.8930054-2.9793806-1.7400055-3.9724998-2.3509979-.4729099-.2819977-.8985305-.5169983-1.1822805-.7050018-.2837497-.1880036-.4256197-.2830048-.4256197-.2830048z" fill="#e0e0e0"/><path d="m17.9706993 148.6580048s.141901-.1419983.4729004-.2830048c.3311005-.1880035.7567005-.4700012 1.2769012-.7519989 1.0876999-.6580048 2.5536995-1.552002 4.2088985-2.6340027 1.6079006-1.0339966 3.0740013-2.0220032 4.1144009-2.7740021.4729004-.3300018.8985004-.6119995 1.2294998-.8470001.2838001-.1880035.4729996-.2819977.4729996-.2819977s-.1418991.1410065-.4256992.3760071c-.2837009.2350006-.6620007.5169983-1.1823006.8939972-1.0403996.7519989-2.4591007 1.7399902-4.0669994 2.8209991-1.6079006 1.0350037-3.1212006 1.9290009-4.2089005 2.5870056-.5674992.3289948-.9932003.5639954-1.3241997.7049866-.3782996.1419983-.567501.1890107-.567501.1890107z" fill="#e0e0e0"/><path d="m25.8684998 157.7330017h-14.5657998l4.7765007 35.8359985h5.0600986z" fill="#e0e0e0"/><path d="m12.0595999 162.1080017s0 .0469971.0945997.1409912c.0472002.0940094.1891003.1880035.3310003.2350006.3310003.1410065.9457998.1410065 1.5606003-.1879883.5675001-.3300018 1.0876999-.9410095 1.8916998-1.2230072.8038998-.2819977 1.7497005-.2350006 2.6956005.0469971.9457989.2819977 1.7496986.7519989 2.5063992 1.2230072.7567005.4230042 1.4187012.845993 2.0335007 1.0809937.6147995.2830048 1.1350002.3769989 1.5133991.4240112.1891003.0469971.3310013.0469971.4256001.0469971h.141901c0-.0469971-.8040009-.0469971-1.9863014-.6119995-.5674992-.2819977-1.229599-.6580048-1.9861984-1.128006-.7094002-.470993-1.5606003-.9409943-2.5538006-1.2229919-.9458008-.32901-1.9862003-.3760071-2.8374004-.0470123-.4256992.1410065-.7566996.4230042-1.0876999.6580048-.2838001.2350006-.5675001.4700012-.8513002.6589966-.5201998.32901-1.0876999.3760071-1.4186993.2350006-.3311006-.1409914-.4729005-.3289949-.4729005-.3289949z" fill="#f5f5f5"/><path d="m12.5796003 168.7380066s.0945997-.1410065.3309994-.3760071c.2365007-.2350006.6148005-.5169983 1.1823006-.753006.5675001-.1879883 1.2296-.3289948 2.0335989-.2819977.8039017.0469971 1.655201.1880035 2.5537014.32901.8984985.1409912 1.7971001.2359924 2.6009998.0939941.8039989-.0939941 1.5132999-.3289948 2.0334988-.5639954.5675011-.2350006.9459-.5169983 1.2296009-.7050018.2838001-.1880035.3784008-.3300018.3784008-.3300018-.0473003-.0469971-.5675011.470993-1.7025013.9409943-.5674992.2350006-1.229599.4230042-1.9862995.5169983-.7565994.0940094-1.655201.0470123-2.5536995-.1409912-.8985004-.1410065-1.7497997-.3289948-2.5537014-.3289948-.8039989 0-1.5133991.1409912-2.0808992.3759918s-.9457998.5650024-1.1821995.8470001c-.0946007.1410065-.1892004.2350006-.2365007.3289948-.0472995.0000001-.0472995.0000001-.0472995.0470124z" fill="#f5f5f5"/><path d="m24.2134991 172.2649994s-.1418991-.0939941-.3782997-.1880035c-.2838001-.0939941-.7094002-.2350006-1.229599-.2350006-.5202007-.0469971-1.1350002 0-1.8444004.0940094-.6620007.0939941-1.4186993.2819977-2.1753998.4700012-.7565994.1409912-1.5132999.2819977-2.1753998.2350006-.6620007 0-1.2768002-.1880035-1.7025003-.3760071-.9457998-.4230042-1.2768002-.9880066-1.3241005-.9880066 0 0 .0473003.1410065.2364006.3770142.1891994.2350006.5202999.5169983.9932003.7519989.4728994.2350006 1.0876999.4229889 1.7969999.4229889.7094002.0470123 1.4660988-.0469971 2.2227001-.2350006.7566986-.1409912 1.5133991-.3759918 2.1753998-.4700012.6620998-.1409912 1.2768993-.1879883 1.7971001-.1409912 1.0403995-.0000001 1.6078987.3289947 1.6078987.2819976z" fill="#f5f5f5"/><path d="m13.8563995 177.2039948c0 .0470123.5203009-.3300018 1.4188004-.1409912.4256001.0939941.9458008.2819977 1.4659996.5639954.5675011.2350006 1.2296009.4700012 1.9390011.5169983 1.4186993.1410065 2.6955986-.3289948 3.4995003-.798996.3783989-.2350006.6620998-.4710083.8512993-.6589966.1891003-.1880035.283699-.2819977.2364006-.32901-.0473003-.0469971-.4256001.3760071-1.2296009.8470001-.8038998.4230042-2.0335007.8460083-3.4048996.7050018-1.3715-.0939941-2.4591999-.8939972-3.4050007-.9879913-.4728994-.0470123-.8511992 0-1.0876999.0939941-.1419001.0950012-.2838002.1889954-.2838002.1889954z" fill="#f5f5f5"/><path d="m14.7075005 184.1159973c0 .0469971.4728994.0469971 1.2296-.2350006.7566996-.2350006 1.6552-.8000031 2.6955996-1.2229919.5202007-.1880035 1.0876999-.32901 1.5606003-.32901s.8985996.1410065 1.229599.2819977c.6620998.32901.8512001.8000031.8985004.7520142 0 0 0-.1410065-.1417999-.2820129-.0946007-.1879883-.3311005-.4229889-.6620998-.6109924-.3311005-.1880035-.8040009-.3289948-1.3241997-.3760071-.5202007 0-1.0876999.0940094-1.655201.32901-1.0876999.4229889-1.9861984.9879913-2.6955996 1.269989-.7094002.2820128-1.1349993.3760069-1.1349993.423004z" fill="#f5f5f5"/><path d="m15.4169998 187.3150024c0 .0469971.3310003.1409912.9458008.2819977.5674992.1410065 1.4188004.2819977 2.3172989.3760071.8985004.0939941 1.7497997.0939941 2.3173008.0469971.6147995-.0469971.9457989-.0940094.9457989-.0940094 0-.0939941-1.4659996 0-3.2630997-.1879883-1.8444004-.1410065-3.2630997-.5170136-3.2630997-.4230042z" fill="#f5f5f5"/><path d="m310.9880066 9.5938196-26.8609924-9.5938196-26.5780029 9.4527397c-3.405014 1.5989599-6.3840179 2.5395603-6.3840179 5.6904602v15.6604996c0 10.8636017 2.8840027 21.6330986 8.7480011 31.1799011 4.9660034 7.9948997 12.6270142 16.2249031 24.4500122 21.4920998 10.8769836-3.5271988 18.9639893-12.8859024 23.9299927-20.8806992 5.9110107-9.4998016 8.7479858-20.2693024 8.7479858-31.1799011v-14.0615997c.0480041-4.5147-2.3169862-6.6780005-6.0529786-7.7596808z" fill="#f5f5f5"/><path d="m284.4100037 74.3520966c-9.3630066-4.1384964-15.4169922-10.8164978-19.3420105-17.1183968-4.6820068-7.524498-6.9519958-16.0367012-6.9519958-24.6428986v-11.0047016c0-2.4925003 1.5140076-4.7968998 4.4930115-6.2077999l21.5180054-7.9948196v-7.3834801l-26.5780029 9.4527397c-2.7900085 1.2227602-6.3840179 2.5395603-6.3840179 5.6904602v15.6604996c0 10.8636017 2.8840027 21.6330986 8.7480011 31.1799011 4.9660034 7.9948997 12.6270142 16.2249031 24.4500122 21.4920998v-9.1236038z" fill="#ebebeb"/><path d="m284.4100037 83.4757004c1.8919983-.6113968 3.5939941-1.3638992 5.2969971-2.2574005 4.4450073-2.3984985 8.276001-5.7375031 11.1610107-8.7472992 3.2630005-3.3389969 5.6749878-7.0073013 7.7549744-10.3932991 5.9120178-9.4998016 8.7490234-20.2693024 8.5130005-31.462101v-12.9329014c0-6.4428988-3.3579712-6.9131994-6.1479797-8.1359091l-26.8619996-9.5467901v7.3834801l21.7550049 8.1359196c2.9789734 1.4109001 4.4919739 3.7152996 4.4919739 6.2077999v11.0046997c0 8.6062012-2.269989 17.1184006-6.9519958 24.6429024-3.9249878 6.3488998-9.7420044 12.8857956-19.1049805 17.0243988v9.0764999z" fill="#e0e0e0"/><path d="m291.2680054 31.8850002.0469971-2.1163006c0-3.8092995-3.1210022-6.9132004-6.9519958-6.9132004-3.8300171 0-6.9519958 3.1039009-6.9519958 6.9132004l-.0469971 2.1632996c-1.8920288.2821999-3.3100281 1.8810997-3.3100281 3.8092995v12.4626007c0 2.1632996 1.7490234 3.8563004 3.8780212 3.8563004h13.0050049c2.1749878 0 3.8779907-1.7401009 3.8779907-3.8563004v-12.4626007c-.0000001-2.0221977-1.5610047-3.6681977-3.5469971-3.8562985zm-5.1080017 13.2149983h-3.4049988l.5209961-2.4454994c-.5679932-.3761978-.993988-1.0345993-.993988-1.7401009 0-1.1286964.9459839-2.0691986 2.0809937-2.0691986 1.1349792 0 2.0809937.9405022 2.0809937 2.0691986 0 .7055016-.3779907 1.363903-.8980103 1.6931.2360228.9405021.6140136 2.4925003.6140136 2.4925003zm3.5939941-13.2620983h-10.9240112l.0470276-2.1163006c0-3.0098 2.4599915-5.4552994 5.4859924-5.4552994 3.0270081 0 5.4859924 2.4454994 5.4859924 5.4083004z" fill="#e0e0e0"/><path d="m262.4670105 31.7444992c-.0469971 0-.2360229-.7994995-.4250183-2.1632996-.1419983-1.3638-.2839966-3.2449989-.2369995-5.3141994.0469971-1.0347004.0950012-2.0223007.1889954-2.9158001.0950012-.8936005.2369995-1.7401009.6150208-2.3514004.3309937-.6114006.8039856-.9876003 1.1819763-1.1758003.3790283-.1880989.6150208-.1409988.6150208-.1409988.0480042.046999-.8980103.2350998-1.4660034 1.4577999-.2839966.5643997-.4249878 1.3638992-.4729919 2.2573986-.0469971.8936005-.1419983 1.8812008-.1419983 2.9158001-.0469971 2.0692005 0 3.9034004.0950012 5.2672005.0469969 1.316801.095001 2.1163005.0469969 2.1632995z" fill="#fff"/><path d="m262.8460083 38.5163994c-.1419983 0-.2369995-.6583977-.2839966-1.457901 0-.7994995.0950012-1.4578972.1889954-1.4578972.1419983 0 .2369995.6583977.2839966 1.4578972.046997.8465004-.0469971 1.457901-.1889954 1.457901z" fill="#fff"/><path d="m323 193.5700073c0 .0469971-72.1670074.1409912-161.2160034.1409912-89.0499954 0-161.2166138-.0469971-161.2166138-.1409912 0-.0940094 72.1666183-.1410065 161.2166138-.1410065 89.048996.0469971 161.2160034.0939942 161.2160034.1410065z" fill="#263238"/><path d="m265.493988 13.3086004h-205.2448883c-3.5468979 0-6.3843994 2.8686991-6.3843994 6.3487997v144.1426086c0 3.5269928 2.8848 6.348999 6.3843994 6.348999h78.7868958s5.0130005 15.4250031-10.4980011 23.3730011h73.6320038s-17.5449982-5.9730072-13.0050049-23.3730011h76.3759918c3.5470276 0 6.3840027-2.8690033 6.3840027-6.348999v-144.1426086c-.0469971-3.5270996-2.8849793-6.3487997-6.4309998-6.3487997z" fill="#455a64"/><path d="m165.6139984 155.0059967c2.7900085 3.9499969-1.5610046 8.3240051-5.5800018 5.548996-.1419983-.0939941-.2369995-.1879883-.3309937-.3289948-2.7910004-3.9499969 1.5599976-8.3240051 5.5800018-5.548996.1419984.0939942.2359925.1880036.3309937.3289948z" fill="#263238"/><path d="m268.3309937 143.8130035h-210.9193955v-123.3089027c0-2.5395012 2.0336037-4.5617008 4.5873032-4.5617008h201.7920837c2.5540161 0 4.5870056 2.0221996 4.5870056 4.5617008v123.3088989h-.046997z" fill="#fff"/><path d="m268.3309937 26.5709991h-210.9193955v-6.3488998c0-2.3983994 1.939003-4.3265991 4.3508034-4.3265991h203.0695953c1.9859924 0 3.54599 1.598999 3.54599 3.5270996v7.1483994h-.0469932z" fill="#ebebeb"/><path d="m64.1271973 22.9020996c.8096008 0 1.4660034-.6527004 1.4660034-1.4578991 0-.8052006-.6564026-1.457901-1.4660034-1.457901-.8096962 0-1.4660988.6527004-1.4660988 1.457901 0 .8051987.6564026 1.4578991 1.4660988 1.4578991z" fill="#e0e0e0"/><path d="m68.5251007 22.9020996c.8097 0 1.4659958-.6527004 1.4659958-1.4578991 0-.8052006-.6562958-1.457901-1.4659958-1.457901s-1.4660034.6527004-1.4660034 1.457901c0 .8051987.6563034 1.4578991 1.4660034 1.4578991z" fill="#e0e0e0"/><path d="m72.7341995 22.9020996c.8097 0 1.4660034-.6527004 1.4660034-1.4578991 0-.8052006-.6563034-1.457901-1.4660034-1.457901s-1.4659958.6527004-1.4659958 1.457901c0 .8051987.6562958 1.4578991 1.4659958 1.4578991z" fill="#e0e0e0"/><path d="m228.7949982 170.1959991c0 .0469971-29.1779938.1410065-65.2140045.1410065-36.0369949 0-65.2152939-.0470123-65.2152939-.1410065 0-.0469971 29.178299-.1410065 65.2152939-.1410065 35.9880065.0000001 65.2140045.0470124 65.2140045.1410065z" fill="#263238"/><path d="m195.4550018 44.5355988-32.1580048-11.8041992-31.875 11.6160011c-4.0669937 1.9752007-7.612999 3.151001-7.612999 7.0072975v19.2347031c0 13.356102 3.4520035 26.6180954 10.4980087 38.281601 5.9589996 9.8289948 15.1329956 19.9400024 29.3209991 26.3829956 13.0049896-4.3269958 22.746994-15.8019943 28.6579895-25.6309967 7.0469971-11.7099991 10.4990082-24.9251022 10.4990082-38.2812042v-17.2594987c.0000002-5.5022965-2.8850096-8.2298966-7.3300017-9.5466995z" fill="#00a87b"/><path d="m195.4550018 44.5355988-32.1580048-11.8041992-31.875 11.6160011c-4.0669937 1.9752007-7.612999 3.151001-7.612999 7.0072975v19.2347031c0 13.356102 3.4520035 26.6180954 10.4980087 38.281601 5.9589996 9.8289948 15.1329956 19.9400024 29.3209991 26.3829956 13.0049896-4.3269958 22.746994-15.8019943 28.6579895-25.6309967 7.0469971-11.7099991 10.4990082-24.9251022 10.4990082-38.2812042v-17.2594987c.0000002-5.5022965-2.8850096-8.2298966-7.3300017-9.5466995z" fill="#fff" opacity=".4096"/><path d="m182.9230042 93.2570038h-5.9110107v-31.9795036c0-7.5245018-6.147995-13.6381989-13.7149963-13.6381989-7.5659943 0-13.7140045 6.1136971-13.7140045 13.6381989v31.9795036h-5.9119873v-31.9795036c0-10.7695007 8.7969971-19.5167999 19.6259918-19.5167999 10.8300018 0 19.6260071 8.7472992 19.6260071 19.5167999v31.9795036z" fill="#06033e"/><path d="m187.0370026 112.7740021h-47.4799957c-1.5140076 0-2.7430115-1.2220001-2.7430115-2.727005v-28.3115998c0-1.5048981 1.2290039-2.7276001 2.7430115-2.7276001h47.4329987c1.5130005 0 2.7429962 1.222702 2.7429962 2.7276001v28.3115997c.046997 1.505005-1.1820069 2.7270051-2.6959992 2.7270051z" fill="url(#b)"/><path d="m167.7420044 91.5173035c0-2.4455032-1.9860077-4.4207001-4.4450073-4.4207001s-4.4449921 1.9751968-4.4449921 4.4207001c0 2.0221939 1.3710022 3.6681976 3.2149963 4.2325974v6.5840988h2.4120026v-6.5840988c1.8919983-.5643998 3.2630005-2.2104035 3.2630005-4.2325974z" opacity=".25"/><path d="m139.651001 109.5759964c-.1410065 0-.2360077-5.6429977-.2360077-12.5563965 0-6.9601974.0950012-12.6035995.2360077-12.6035995.1419983 0 .2369995 5.6434021.2369995 12.6035995 0 6.9604035-.1419983 12.5563965-.2369995 12.5563965z" fill="#fafafa"/><path d="m159.8450012 97.1606979s-.1900024-.0470963-.5209961-.282196c-.3310089-.2350998-.7089996-.6114044-1.1350098-1.175705-.8029938-1.0816956-1.5599976-3.0097961-1.0869904-5.1260986.519989-2.1162949 2.0809937-3.5271988 3.3099976-4.0914993.6149902-.3292007 1.1819916-.4702988 1.5610046-.5172958.3779907-.0471039.6149902-.0471039.6149902-.0471039 0 .094101-.852005.141098-1.9869995.8466034-1.1349945.6112976-2.5529938 1.9750977-3.026001 3.9502945-.4729919 1.9281998.1890106 3.8094025.8980103 4.8440018.6619874 1.0816039 1.4189912 1.504898 1.3719941 1.5989989z" fill="#fafafa"/><g fill="#00a87b"><path d="m203.0690002 127.8700027s.1419983-.1880035.378006-.5170059c.0479889-.0939941.1419983-.1879959.2369995-.2819977.0939941-.0940018.1419983-.2360001.2359924-.3769989.1419983-.2819977.3310089-.564003.4730072-.9869995.0950012-.1880035.1889954-.3759995.2369995-.6119995.0469971-.2350006.1409912-.4700012.1889954-.7050018.0939941-.2350006.1419983-.5169983.1419983-.798996.0469971-.2830048.0939941-.5650024.1419983-.8470001.1410065-1.1760025.0469971-2.5870056-.1900024-4.1389999-.4729919-3.1030045-1.7969971-6.7250061-3.8300018-10.6750031-2.0339966-3.9499969-4.7769928-8.2300034-8.1819916-12.6507034-3.4049988-4.4205933-7.4720001-9.0293961-12.201004-13.6381989-4.7290039-4.6087952-10.026001-9.217598-16.0319977-13.591301-2.9790039-2.1632996-6.1470032-4.3265953-9.4579926-6.301796-3.3100128-2.0222015-6.8100128-3.8563995-10.4990082-5.5023994-3.6880035-1.5988998-7.6129913-3.0098-11.6799927-3.6682014-2.0340118-.3292007-4.1620026-.4702988-6.2430038-.1411018-1.0400009.1411018-2.0330048.4233017-3.0270004.8465004-.9449997.4703026-1.7970047 1.0816994-2.5060043 1.8342018-.7089996.7994003-1.1819992 1.7399979-1.560997 2.7276001-.3310013.9875984-.4729996 2.0221977-.5199966 3.0569-.0940018 2.0691986.3309937 4.1385002.8509979 6.1607018 1.1350021 3.9973984 2.9799957 7.6656952 4.9659958 11.1457977 2.0340042 3.4801025 4.3040009 6.7250977 6.6679993 9.7818985 2.3650055 3.0569 4.8710022 5.9255981 7.378006 8.6533051 5.0599976 5.4077988 10.2619934 10.1577988 15.4160004 14.2967987 5.1549988 4.1380005 10.1679993 7.6650009 14.9920044 10.4869995 4.8239899 2.8689957 9.4109955 5.1259995 13.571991 6.6309967 4.1620026 1.552002 7.9450073 2.4459991 11.1139984 2.5400085 1.5610046.0469971 2.9790039 0 4.1620026-.2820129.2830048-.0469971.5670013-.1409912.8509979-.2359924.2839966-.0940094.5200043-.1410065.7559967-.2350006.2369995-.0939941.4730072-.1880035.6630096-.2819977.1889954-.0940094.3779907-.2350006.5670013-.32901.3779907-.1879883.6620026-.4229889.8990021-.6109924.1409912-.0939941.2359924-.1889954.3309937-.2360077.0939941-.0939941.1889954-.1879883.2359924-.2350006.2840117-.1409913.473007-.2819902.473007-.2819902s-.1419983.1409988-.4730072.4699936c-.094986.0940094-.1419983.1410065-.2359924.2360077-.0950012.0939941-.2369995.1880035-.3309937.2819977-.2369995.1880035-.5210114.4230042-.8990021.6109924-.1890106.0940094-.378006.2350006-.5670013.32901-.2369995.0939941-.4260101.1879883-.6630096.2819977-.2359924.0950012-.4720001.1889954-.7559967.2359924-.2839966.0470123-.5679932.1880035-.8509979.2350006-1.1829987.2819977-2.6009979.3760071-4.1620026.32901-3.1689911-.0940094-6.9519958-.9880066-11.1139984-2.4930115-4.2079926-1.5039902-8.7960052-3.7619934-13.6190033-6.6309967-4.8239899-2.8679962-9.8839874-6.3479996-15.0390015-10.4869995-5.1549988-4.1380005-10.3569946-8.8880005-15.4639893-14.2966003-2.5070038-2.7276993-5.0130005-5.5963974-7.378006-8.6532974-2.3639984-3.0568008-4.6339951-6.301796-6.7149963-9.7818985-2.0340042-3.4801025-3.8779984-7.1954041-5.0130005-11.1928024-.5680008-2.0223007-.9459991-4.0914993-.8509979-6.207798.0469971-1.0816002.1889954-2.1162987.5199966-3.1509018.3779984-1.0345993.8980026-1.9751968 1.6080017-2.7747002.7559967-.7994995 1.6549988-1.4107971 2.6009979-1.8810997.9930038-.4232979 2.0329971-.7054977 3.0739975-.8936005 2.128006-.3291969 4.2559967-.141098 6.3370056.1411018 4.1609955.6584015 8.0390015 2.0693016 11.7749939 3.6682014 3.6890106 1.6459999 7.2360077 3.4801979 10.5460052 5.5023994 3.3110046 2.0221977 6.4790039 4.1384964 9.4589996 6.301796 5.9579926 4.373703 11.302002 9.0295029 16.0310059 13.6383057 4.6819916 4.6087952 8.7969971 9.217598 12.2019958 13.6852951 3.4039917 4.4677048 6.1470032 8.7005997 8.1809998 12.6976013 1.9859924 3.9500046 3.3099976 7.6190033 3.7829895 10.7229996.2370148 1.552002.2840118 2.961998.1890106 4.1380005 0 .2819977-.0940094.564003-.1410065.8470001-.0480042.2819977-.0950012.5169983-.1900024.7990036-.0469971.2350006-.1419983.4699936-.1889954.7059937-.0939941.2350006-.1889954.4230042-.2359924.6110001-.1420135.3760071-.3310089.7050018-.5200043.9880066-.0950012.1409988-.1419983.2819977-.2369995.3759995-.0950012.0939941-.1419983.1879959-.2360077.2819977-.2839964.1409988-.4259947.3290023-.4259947.3290023z"/><path d="m218.2019958 91.5170975s0-.2350998-.0469971-.6583939c0-.0940018 0-.2351074-.0469971-.3762054 0-.141098-.0480042-.282196-.0950012-.4233017-.0469971-.2820969-.1419983-.6583939-.2839966-1.0345993-.0940094-.1880951-.1410065-.4232941-.2360077-.6113968s-.1889954-.4232025-.3309937-.6584015c-.0950012-.2350998-.2369995-.4702988-.378006-.7053986-.1419983-.2350998-.2839966-.4702988-.4729919-.7053986-.7100067-.9876022-1.7030029-1.9752045-2.8850098-2.9627991-2.4119873-1.9752045-5.8170013-3.8093033-9.9789886-5.4552994-4.1610107-1.5990067-9.07901-2.9628067-14.5650024-4.0445023-5.5330048-1.081604-11.6340027-1.7871017-18.2070007-2.1163025-6.5740051-.3292007-13.6679993-.2350998-21.0449982.4702988-3.6890106.3292007-7.4720001.8465042-11.303009 1.552002-3.8300018.7053986-7.6609955 1.6460037-11.5389938 2.8686981-3.8300018 1.2698059-7.6610031 2.774704-11.1610031 5.0320053-1.7490005 1.1287003-3.4049988 2.3984985-4.776001 3.9974976-.6619949.7994995-1.2299957 1.6930008-1.6549988 2.6335983-.3789978.9876022-.6149979 1.9752045-.6620026 3.0568008 0 1.0346985.2360001 2.0692978.6620026 3.0569.4250031.9405975.9930038 1.8340988 1.6549988 2.6335983 1.3240051 1.598999 3.0270004 2.915802 4.776001 3.9975052 3.5 2.2099991 7.3310013 3.7619934 11.1610031 5.0319977 3.8310013 1.2229996 7.708992 2.163002 11.5389938 2.8689957 3.8310089.7050018 7.6139984 1.2220001 11.303009 1.552002 7.3769989.7050018 14.470993.7519989 21.0449982.4700012 6.572998-.3290024 12.720993-1.034996 18.2070007-2.1159973 5.4859924-1.0820007 10.4039917-2.3990021 14.5650024-4.0450058 4.1619873-1.598999 7.5670013-3.4329987 9.9789886-5.4550934 1.230011-.9876022 2.2230072-1.9752045 2.8850098-2.9628067.1889954-.235199.3309937-.4702988.4729919-.7053986.1410065-.235199.2830048-.4702988.378006-.7054977.0950012-.2350998.2359924-.4232025.3309937-.6584015.0950012-.2350998.1419983-.4231949.2360077-.6112976.1419983-.3763046.2369995-.7525024.2839966-1.0346985.0469971-.1411057.0480042-.2821045.0950012-.4232025 0-.141098 0-.235199.0469971-.3292007.0000001-.2351989.0469971-.4233016.0469971-.4233016s0 .235199-.0469971.6584015v.3761978c0 .1411057-.0469971.2822037-.0950012.4233017-.0469971.3292007-.1409912.6584015-.2830048 1.0345993-.0479889.1881027-.1419983.4233017-.2369995.6114044-.0939941.1880951-.1889954.4232941-.3309937.6584015-.0939941.2350998-.2359924.4702988-.378006.7053986-.1419983.235199-.2839966.4702988-.4729919.7054977-.7089996.9876022-1.7019958 1.9751968-2.8849945 2.9626999-2.4120026 2.0220032-5.8640137 3.8560028-9.9780121 5.5019989-4.1620026 1.6460037-9.0800018 3.0100021-14.6129913 4.0920029-5.5330048 1.0820007-11.6340027 1.7869949-18.2550049 2.1159973s-13.6669922.2350006-21.0919952-.4229965c-3.6880035-.3290024-7.4720001-.8470001-11.302002-1.552002-3.8310089-.7050018-7.7089996-1.6460037-11.5390015-2.8690033-3.8310013-1.2699966-7.7089996-2.8209991-11.2559967-5.0319977-1.75-1.1289978-3.4520035-2.4452972-4.8230057-4.091301-.6629944-.7994995-1.2770004-1.740097-1.7029953-2.7276993-.4260023-.9876022-.6620024-2.0691985-.6620024-3.1509017 0-1.0815964.2839966-2.1632996.6620026-3.1508942.4259949-.9876022 1.0400009-1.8811035 1.7029953-2.680603 1.3710022-1.6460037 3.0730057-2.915802 4.8230057-4.0445023 3.5469971-2.2573013 7.3779984-3.8092957 11.2080002-5.0319977 3.8310013-1.2228012 7.708992-2.1632996 11.5389938-2.8687973 3.8310089-.7054062 7.6139984-1.222702 11.303009-1.5519028 7.4249878-.7053986 14.470993-.7525024 21.0919952-.4233017s12.720993 1.0346985 18.2539978 2.1163025c5.5339966 1.0816956 10.4519958 2.4454956 14.6130066 4.0914993 4.1619873 1.6459961 7.5670013 3.4801025 9.9789886 5.5022964 1.230011.9876022 2.2230072 1.9752045 2.8850098 2.9628067.1889954.235199.3309937.5172958.4729919.7054977.1410065.2350998.2830048.4701996.378006.7053986.0950012.2350998.2359924.4702988.3309937.6584015.0950012.2350998.1419983.4231949.2360077.6113968.1419983.3762054.1900024.7524033.2839966 1.0345993.0469971.1411057.0480042.2822037.0950012.4232025v.376297c.0939941.3292009.0939941.5643007.0939941.5643007z"/><path d="m198.151001 46.2751999s-.1900024-.094101-.5209961-.3292007c-.0940094-.0471001-.1890106-.141098-.2830048-.1880989-.0950012-.0471001-.2369995-.1411018-.3789978-.1882019-.2830048-.1409988-.6139984-.2820969-.9929962-.4231987-.1890106-.0471001-.378006-.141098-.6150055-.1880989-.2360077-.0471001-.4730072-.094101-.7089996-.1411018-.2360077-.0469971-.5200043-.0940971-.8040009-.0940971s-.5670013-.0940018-.8509979-.0470009c-1.2299957-.0470009-2.6009979.141098-4.1150055.4702988-3.072998.7053986-6.6199951 2.2573013-10.451004 4.5147018-3.8309937 2.2573967-7.897995 5.3141975-12.1059875 8.9824982-4.2089996 3.6682014-8.5599976 8.0418015-12.8160095 13.0269012-4.3040009 4.9850006-8.5599976 10.581398-12.5329895 16.8361969-1.9860077 3.1039047-3.878006 6.3959045-5.6750031 9.8290024-1.7969971 3.433197-3.4049988 7.0541992-4.776001 10.8162003-1.3240051 3.7630005-2.4589996 7.7600021-2.8380051 11.8519974-.1889954 2.0690002-.1889954 4.1380005.2840042 6.2070007.2369995 1.0350037.5679932 2.022995 1.0879974 2.9160004.5200043.8939972 1.1820068 1.7400055 2.0330048 2.3990021.8519897.6109924 1.7980042 1.0809937 2.8379974 1.3630066 1.0399933.2349854 2.0809937.3299866 3.1210022.3299866 2.0809937-.0469971 4.1620026-.6119995 6.1009979-1.269989 3.9250031-1.4110107 7.5189972-3.480011 10.8289948-5.6910019 3.3580017-2.2570038 6.4320068-4.75 9.3170013-7.2890015 2.8850098-2.586998 5.628006-5.2200012 8.1809998-7.901001 5.0599976-5.4079971 9.4589996-10.9110031 13.2420044-16.2717972 3.7830048-5.3612061 6.9519958-10.6284027 9.5050049-15.6135025 2.5540009-4.9850006 4.4929962-9.6877975 5.7229919-13.9204025 1.2770081-4.2325974 1.8910065-8.0418968 1.7969971-11.1927986-.0479889-1.551899-.2369995-2.9627991-.5679932-4.0914993-.0469971-.2821999-.1889954-.5643005-.2839966-.7994995-.0940094-.2821007-.1890106-.5172997-.2830048-.7523994-.0950012-.2352028-.2369995-.4233017-.3309937-.6584015-.0950012-.1880989-.2369995-.3763008-.3310089-.5643997-.1900024-.3762016-.4729919-.6113014-.6620026-.8465004-.0950012-.1411018-.1900024-.2350998-.2839966-.3292007-.0950012-.093998-.1889954-.1880989-.2839966-.2350998-.4259947-.3763012-.5670011-.5173-.5670011-.5173s.1889954.1411018.4729919.4231987c.0940094.0471001.1890106.1411018.2830048.2352028.0950012.093998.1889954.1880989.2839966.3291969.1890106.2350998.4730072.5173035.6620026.8465004.0950012.1881027.2369995.3292007.378006.5643005.0950012.1880989.1900024.4233017.3309937.6584015.1419983.235199.2369995.4702988.3310089.7524986.0950012.2821007.2369995.5172997.2839966.7994995.3789978 1.1757011.5200043 2.5395012.6150055 4.0914001.094986 3.151001-.5200043 6.9603004-1.75 11.2399025-1.2290039 4.2796021-3.1680145 8.982399-5.7220001 13.9673996-2.506012 4.9850998-5.7220001 10.2522964-9.506012 15.6605988-3.7829895 5.408699-8.1809998 10.9106979-13.2409973 16.3187027-2.5540009 2.6809998-5.2489929 5.3610001-8.1819916 7.947998-2.8840027 2.586998-6.006012 5.0319977-9.3630066 7.3359985-3.3580017 2.2579956-6.9519958 4.3269958-10.8769989 5.7380066-1.9860077.7050018-4.0670013 1.2229919-6.1950073 1.269989-1.0879974.0470123-2.1289978-.0469971-3.2159882-.3300018-1.0410004-.2819977-2.0340118-.7519989-2.9320068-1.4099884-.852005-.6590118-1.5610046-1.5050049-2.0809937-2.4459991-.5200043-.9400024-.8510056-1.9750061-1.0880051-3.0100021-.4729996-2.0690002-.4729996-4.1850052-.2839966-6.2540054.3789978-4.1389999 1.5139999-8.1360016 2.8850021-11.8989944 1.371994-3.8090057 3.0269928-7.3830032 4.7769928-10.8163071 1.7969971-3.4330978 3.6880035-6.7249985 5.6750031-9.8288956 3.9720001-6.2547989 8.276001-11.8512039 12.5789948-16.8362045 4.3040009-4.9850998 8.654007-9.358696 12.8630066-13.0269966 4.2089996-3.6682014 8.3239899-6.7249985 12.1539917-8.982399 3.8310089-2.2574005 7.4250031-3.8092995 10.4990082-4.467701 1.5130005-.3292007 2.9319916-.5172997 4.1620026-.4702988.2829895 0 .6139984.0470009.8509979.0470009.2839966.0469971.5670013.0471001.8040009.0940971.2359924.0470009.4729919.0940018.7089996.1411018.2369995.0470009.4259949.1409988.6149902.1880989.378006.0940018.7089996.2821999.9930115.4231987.1419983.094101.2839966.1411018.3779907.1882019.0950012.093998.1900024.1409988.2839966.1880989.3780058.1881029.5680083.3292009.5680083.3292009z"/><path d="m106.3580017 117.5240021c1.1230011 0 2.0339966-.9060059 2.0339966-2.0220032 0-1.1169968-.9109955-2.0230026-2.0339966-2.0230026s-2.0330048.9060059-2.0330048 2.0230026c0 1.1159973.9100037 2.0220032 2.0330048 2.0220032z"/><path d="m222.8370056 51.2136002c0 1.1287003-.8990021 2.0222015-2.0340118 2.0222015-1.1349945 0-2.0329895-.8935013-2.0329895-2.0222015s.897995-2.0223007 2.0329895-2.0223007c1.1350097-.0000001 2.0340118.8936004 2.0340118 2.0223007z"/><path d="m120.6869965 120.7210007c0 .2829971-.2360001.5179977-.5199966.5179977s-.5199966-.2350006-.5199966-.5179977c0-.2819977.2360001-.5169983.5199966-.5169983s.5199966.2350006.5199966.5169983z"/><path d="m131.7059937 63.9118004c0 .2821999-.2359924.5172997-.519989.5172997-.2840118 0-.5200043-.2350998-.5200043-.5172997s.2359924-.5172997.5200043-.5172997c.2839965 0 .519989.2350998.519989.5172997z"/><path d="m212.5749969 91.5173035c0 .2820969-.2369995.5172958-.5209961.5172958-.2830048 0-.5200043-.235199-.5200043-.5172958 0-.2822037.2369995-.5174026.5200043-.5174026.3309937-.0000001.5209961.2351989.5209961.5174026z"/><path d="m219.8099976 67.4850006c0 .282196-.2359924.5172958-.5200043.5172958-.2839966 0-.519989-.2350998-.519989-.5172958 0-.2820969.2359924-.5173035.519989-.5173035.2840118 0 .5200043.2352066.5200043.5173035z"/><path d="m303.0899963 144.4250031c2.269989-1.4109955 4.8710022-2.3040009 7.5670166-2.5870056 1.2299805-.1409912 2.6009827-.0939941 3.5469971.6589966.1889954.1410065.4249878.3760071.3779907.6580048-.0469971.1880035-.1889954.3289948-.3309937.4230042-3.074005 2.3519896-7.7080077 2.6340025-11.1610107.847z"/><path d="m303.2789917 144.2369995c1.7030029-1.3170013 3.4049988-2.6809998 4.8710022-4.2799988s2.6010132-3.5270081 3.0740051-5.5960083c.1419983-.6589966.1889954-1.3639984-.2359924-1.8819885-3.8780212 3.0099945-6.9519959 6.9140015-7.7090149 11.7579956z"/><path d="m303.1380005 144.378006c.2839966-2.1170044.3779907-4.2799988-.0950012-6.348999s-1.6080017-4.0450134-3.4049988-5.2670135c-.6619873 1.552002-.3779907 3.3390045.0950012 4.9850006.7089844 2.5390015 1.8919983 4.9380035 3.3580017 7.0540009"/><path d="m299.3540039 151.1970062c2.3179932.2819977 4.3039856 1.5049896 6.0539856 3.0569916s2.9320068 3.6679993 3.4519958 5.9259949c-2.269989-.1409912-4.2089844-1.7399902-5.5799866-3.5269928-1.4190063-1.7870026-2.3649902-3.7630005-3.9259948-5.4559937z"/><path d="m298.5029907 152.2779999c1.8450012-4.5610046 1.1820068-10.0639954-1.7019958-14.0610046-1.3240052 4.6560058-.8519898 9.9230041 1.7019958 14.0610046z"/><path d="m293.4899902 158.2510071c2.0810242-.1410065 4.2090149.3769989 6.053009 1.4109955 1.8450012 1.0350037 3.3110046 2.6340027 4.2569885 4.5149994.1419983.2350006.2360229.5639954.0469971.798996-.1419983.1889954-.4259949.2360077-.6619873.1889954-2.0339966-.1409912-3.8309937-1.3639984-5.3439941-2.7279968-1.4660034-1.4109956-2.7430115-3.0099946-4.3510132-4.1859895z"/><path d="m293.6319885 157.9219971c1.0880127-3.4329987 1.1350098-7.1949921.1890259-10.6750031-.3780212-1.3639984-.9930115-2.821991-2.2700195-3.4799957-.0939941-.0469971-.2359924-.0939941-.3309937-.0469971-.0939941.0469971-.1889954.1409912-.2359924.2350006-.4730225.9400024-.5680237 2.0220032-.5200195 3.0569916.0469971 1.0340118.28302 2.0690002.4720154 3.1040039.4259949 1.8809967.6149902 3.9499969 1.6560059 5.548996.2359924.3760071.4729919.7990112.6619873 1.2230072.1889954.4230042.1889954.5639954.3779907.8930054"/><path d="m280.3429871 159.8970032c.9930115-3.7149963-.0469971-8.2770081-2.4119873-11.3339996-.1889954-.2350006-.4249878-.4700012-.7090149-.4230042-.4259949.0469971-.5679932.6110077-.519989 1.0339966.1409912 3.8099975 1.4179992 7.5720062 3.6409912 10.7230072z"/><path d="m279.1140137 160.6970062c-4.5400085 1.1759949-9.7900085.0469971-13.5730286-2.727005 2.2700195-1.1289978 4.9180298-1.4580078 7.3770142-.8939972 2.4119873.5169983 4.6820068 1.6459961 6.1960144 3.6210022z"/><path d="m278.1199951 158.2039948c-2.553009-4.1389923-7.4719849-6.8659973-12.3429871-7.1009979.5679932 1.9750061 2.1759949 3.5270081 4.019989 4.4199982 1.8439941.9410095 3.8779907 1.3170013 5.9120178 1.7400055.8029786.1410064 1.8909913.3300017 2.4109803.9409942z"/><path d="m280.0599976 146.1649933c-.7099915-2.3519897-1.3720093-4.75-1.5610046-7.1959991-.1889954-2.4449921.1419983-4.9850006 1.4190063-7.1009979 2.3640137 4.6090088 2.6480103 9.9700012.1889954 14.5319977"/><path d="m272.019989 142.1199951c-2.789978-5.0319977-8.4649963-9.0759888-14.2349854-9.6409912 2.222992 5.5029907 8.276001 9.7350006 14.2349854 9.6409912z"/><path d="m273.769989 143.1080017c-4.1619873.6119995-7.7089844 3.2919922-11.5869751 4.8909912-.8510132.32901-1.75.6119995-2.6010132.5180054-.8980103-.0950012-1.75-.7059937-1.9859924-1.598999-.1889954-.7059937.1889954-1.5050049.7089844-2.022995.5200195-.5169983 1.230011-.8460083 1.8919983-1.128006 4.256012-1.7400055 8.7960205-1.7870026 13.2409973-.7529907"/><path d="m276.1820068 146.0240021c-.9460144.2819977-1.2770081.7519989-2.0339966 1.3639984-2.5540161 2.1629944-5.5800171 3.7149963-8.7960205 4.5149994-.3309937.0939941-.7569885.0939941-.9459839-.1889954-.1419983-.2819977.0469971-.5640106.2359924-.7990112 1.3720093-1.6929932 3.2640076-2.821991 5.2969971-3.5739899 2.0339966-.753006 3.7829895-1.6459961 6.1950073-1.4580078"/><path d="m278.9249878 128.4819946c-3.4049988 3.151001-8.1349792 4.75-12.7689819 4.3270111-.1889954 0-.4259949-.0470123-.5679932-.1880035-.3310242-.3289948.0479736-.8939972.4259949-1.1759949 3.7359924-2.9630127 8.2760009-4.1380081 12.9109802-2.9630127z"/><path d="m275.7090149 127.3069992c-4.4930115-3.3389969-10.5940247-4.3269958-15.9380188-2.6340027 1.9869995 1.9750061 4.7770081 3.0100021 7.5670166 3.2919998 2.8379822.32901 5.6279907 0 8.3710022-.6579971z"/><path d="m276.9849854 119.2649994c.3790283-3.7149963.1420288-6.6780014.3790283-10.3929977 0-.2820053.0939941-.6590042.3779907-.7529984.3779907-.1410065.7089844.3299942.8509827.7059937 1.1350098 3.4330063.5200195 7.3830032-1.6080017 10.3460007"/><path d="m277.2219849 119.6409988c-2.5539856-1.552002-4.4449768-3.6210022-6.1949768-5.9720001-1.230011-1.6459961-2.2700195-3.6689987-1.9860229-5.6910019 1.7020264-.0469971 3.3570251.8940048 4.4920044 2.2110062 1.1350098 1.3159943 1.7969971 2.9149933 2.2700195 4.560997.520996 1.598999.8519897 3.2919998 1.4189758 4.8909988z"/><path d="m271.1690063 117.9950027c-5.5809937-2.0699997-10.78302-5.0800018-15.2750092-8.9360046 1.8440094-.7519989 3.9250031-.2819977 5.7220001.4230042 4.1610107 1.6930008 7.5660095 4.5149994 9.6000061 8.4649963"/><path d="m275.5190125 121.7099991c-2.8370056.3300018-5.6750183.5179977-8.4650269.0470047-2.742981-.4700012-5.3439941-1.5510025-7.8979797-2.6330032-.1889954-.0940018-.4250183-.1880035-.5200195-.4230042-.0939941-.2360001 0-.5179977.1890259-.6589966.1900024-.1880035.4259949-.2350006.6619873-.3290024 2.7910156-.798996 5.8169861-.4229965 8.5599976.5170059 2.7430113.9409943 4.9660033 2.0229951 7.4720153 3.4799958z"/><path d="m291.598999 128.576004c1.9379883-3.8560028 1.7969971-8.3710022.1409912-12.3210068-1.1819763 1.7870026-1.3240051 4.0440063-1.0869751 6.114006.2359924 2.1159973.8509827 4.2789993.8979797 6.3950043"/><path d="m299.3070068 124.7669983c4.7770081-.0940018 9.6000061 1.9280014 12.8639832 5.4550018-2.4119873.3760071-4.8710022-.2350006-7.0469971-1.3170013-2.1749878-1.0339966-4.1139832-2.5390015-6.0529785-3.9970016"/><path d="m304.4620056 123.0270004c2.3639832-.1880035 4.5870056-.4700012 6.8569946.1879959 2.269989.7060013 4.3039856 2.2580032 5.2489929 4.4210052-2.1749878.2350006-4.4450073-.2820053-6.4309998-1.2229996-2.0339965-.8930053-3.8779906-2.1160048-5.6749877-3.3860015z"/><path d="m296.7999878 123.1210022c2.1289978-1.3639984 4.3040161-2.7750015 6.7630005-3.3390045 2.4590149-.5649948 5.2969971-.1409988 7.0469971 1.6930008-1.9869995 1.1750031-4.3989868 1.3160019-6.7159729 1.3160019-2.3170166 0-5.1549988-.0469971-7.3300171.7529984"/><path d="m296.7999878 123.2149963c3.5950012-3.5269928 4.9660034-9.8759995 3.5469971-14.6729965-2.8369751 4.2799988-4.1139832 9.5940018-3.5469971 14.6729965z"/><path d="m286.8699951 113.2450027c-.6629944-1.552002-1.1829834-3.2450027-1.75-4.8440018-.5679932-1.598999-1.3720093-3.197998-2.5069885-4.4680023-1.1350098-1.2689972-2.7430115-2.2099991-4.4920044-2.3040009 1.0870056 4.8440018 4.303009 9.1700058 8.7009888 11.6160049"/><path d="m288.6669922 115.314003c1.1340027-1.552002 2.4110107-3.6210022 3.9720154-4.7970047 1.5130005-1.1279984 3.5-1.8339996 5.3909912-1.409996-1.9389954 3.3859939-5.4859925 5.7369995-9.3630066 6.2070007z"/><path d="m288.2879944 113.3399963c.757019-1.8819962 1.4660034-3.7629929 1.7969971-5.737999.2839966-1.9749985.0950012-4.0909958-.8979797-5.8309937-1.9869995 3.7149963-2.6020203 7.711998-.9940186 11.6159973"/><path d="m286.868988 101.7699966c-1.1349792-3.7148972-4.539978-6.3955002-8.1809998-7.6652985-.4729919-.141098-.9459839-.282196-1.4189758-.2350998-.4730225.0470047-.9460144.4232025-1.0400085.8935013-.1419983.6113968.3779907 1.1756973.8980103 1.598999 2.789978 2.4925004 6.1479797 4.3269044 9.7419738 5.407898z"/><path d="m286.821991 98.7602997c-.1419983-2.3984985-.2839966-4.7969971-1.0870056-7.0542984-.7569885-2.2574005-2.269989-4.373703-4.4459839-5.3612976-.3779907 2.3984985.7089844 4.7968979 1.9859924 6.8661957 1.2770081 2.0691986 2.8380127 4.0444031 3.5950012 6.3488007"/><path d="m286.8699951 100.4069977c.9450073-2.6809998 1.0400085-6.1140976 2.6480103-8.4654999 1.1350098-1.6459961 2.9320068-2.7746964 3.9249878-4.5146942.6620178 1.5988998.4729919 3.4800949-.2359924 5.0789948-.6619873 1.598999-1.7969971 3.009903-2.980011 4.2796021-1.229004 1.3168029-2.2219849 2.2574004-3.3569947 3.6215972z"/><path d="m286.868988 179.6970062c.0950012 0 .1419983-17.9650116.1419983-40.1160126 0-22.1499939-.0469971-40.1151962-.1419983-40.1151962-.0939941 0-.1409912 17.9652023-.1409912 40.1151962 0 22.151001.0469971 40.1160126.1409912 40.1160126z"/><path d="m271.0740051 125.8960037s.2369995.0939941.6619873.234993c.4730225.1410065 1.1350098.3760071 1.8919983.6110001 1.5610046.5170059 3.7360229 1.317009 6.1010132 2.2569962 2.3169861.9880066 4.5400085 1.7870026 5.7689819 2.8690033.6150208.5169983.9930115 1.1289978 1.1820068 1.5050049.1900024.4230042.1900024.6580048.2369995.6580048 0 0 0-.0470123 0-.1880035 0-.1410065-.0469971-.2819977-.1419983-.5169983-.1419983-.4230042-.519989-1.0350037-1.1349792-1.6460114-.6150208-.5639954-1.5130005-1.0819855-2.506012-1.5519867-.993988-.4700012-2.1289978-.9400024-3.3110046-1.4110107-2.3639832-.9399948-4.5400085-1.6929932-6.1480103-2.2099915-.8039856-.2350006-1.4659729-.4230042-1.8909912-.564003-.4729919-.0000001-.7099914-.0469972-.7099914-.0469972z"/><path d="m265.9190063 113.2450027s.0480042.0939941.1900024.1879959c.1409912.1409988.3309937.3290024.5669861.5650024.5200195.4700012 1.2770081 1.1279984 2.1759949 1.9749985 1.8440247 1.6460037 4.3980103 3.9029999 7.1880188 6.3960037 2.789978 2.4919968 5.2489929 4.8439941 6.9039917 6.6779938.8519897.8930054 1.5140076 1.6459961 1.9389954 2.1630096.1889954.2350006.3789978.4229889.5200195.6109924.1419983.1410065.1899719.1889954.1899719.1889954s-.0479736-.0950012-.1419983-.2359924c-.0950012-.1410065-.2839966-.3760071-.4729919-.6110077-.4259949-.5169983-1.0879822-1.3170013-1.8919983-2.2099915-1.6549988-1.8339996-4.0669861-4.2330017-6.9039917-6.7250061-2.8380127-2.4929962-5.3919983-4.7029953-7.2359924-6.3019943-.8980103-.8000031-1.6550293-1.4110031-2.2230225-1.8810043-.2359924-.1889954-.4729919-.3769989-.6139832-.5179977-.1419982-.2350006-.1900024-.2819977-.1900024-.2819977z"/><path d="m279.0660095 124.8610001c.0950012-.0469971-.5200195-1.3639984-1.0870056-3.1039963-.5679932-1.6930008-.8519897-3.151001-.9460144-3.151001-.0469971 0 .0940247 1.5049973.7090149 3.197998.2839966.8470001.6149902 1.598999.8509827 2.1640015.2840271.5639954.4260254.8929978.4730224.8929978z"/><path d="m286.821991 135.723999s.1889954-.1880035.4259949-.5169983c.2840271-.3760071.6620178-.8460083 1.0880127-1.4109955.9450073-1.1750031 2.2220154-2.8680115 3.6409912-4.6560059 1.4660034-1.7870026 2.7900085-3.4329987 3.7360229-4.6080017.4729919-.5649948.8509827-1.034996 1.1349792-1.4109955.2839966-.3290024.4259949-.5170059.3780212-.5170059 0 0-.1890259.1410065-.4730225.4700012-.2829895.3290024-.7089844.7519989-1.1819763 1.364006-.9930115 1.1279984-2.3640137 2.7739944-3.78302 4.5609894-1.4660034 1.8339996-2.6959839 3.480011-3.5939941 4.7030029-.4259949.6119995-.8039856 1.1289978-1.0409851 1.4580078-.1890258.375992-.3310241.5639955-.3310241.5639955z"/><path d="m290.321991 131.3040009c.0469971.0469971.9450073-1.0350037 1.4660034-2.6809998.3779907-1.1760025.3779907-2.2099991.3309937-2.7269974h-.0950012c.0470276.1879959.0950012.3289948.0950012.3289948s0-.1409988 0-.3289948h-.0950012c-.0469971.4699936-.0939941 1.5039978-.4729919 2.6330032-.5199891 1.5989991-1.3240053 2.7279969-1.229004 2.774994z"/><path d="m294.7669983 125.7080002c.0480042.0469971.3309937-.3290024.9930115-.564003.6619873-.2829971 1.7030029-.3299942 2.7909851-.2360001 1.1350098.0940018 2.1279907.2830048 2.8370056.4710007.7089844.1880035 1.1350098.3290024 1.1820068.2820053 0-.0470047-.4250183-.2350006-1.1350098-.4700012-.7089844-.2360001-1.7019958-.4710007-2.8370056-.5180054-1.1349792-.0939941-2.2229919 0-2.8849792.3290024-.7090149.2830048-.9930115.7060013-.9460144.7060013z"/><path d="m295.8080139 124.3430023c0 .0469971.5669861-.2350006 1.5599976-.564003.9459839-.3290024 2.3179932-.6579971 3.8779907-.798996 1.5610046-.0940018 2.9320068 0 3.9249878.1879959.9930115.1880035 1.6080017.3759995 1.6080017.3290024 0 0-.1419983-.0940018-.4249878-.1880035-.2839966-.0940018-.6629944-.2350006-1.1830139-.3289948-.992981-.2360001-2.4119873-.3770065-4.0189819-.2830048-1.5610046.1419983-2.980011.5179977-3.9259949.8940048-.4730225.1879959-.8510132.3759995-1.0870056.5169983-.1900025.1409989-.3309937.2350007-.3309937.2350007z"/><path d="m286.868988 118.6539993c.0480042 0 .5680237-1.7399979 1.1350098-3.9039993.5679932-2.163002.9460144-3.9499969.8990173-3.9499969-.0480042 0-.5680237 1.7399979-1.1350098 3.9029999-.5679931 2.1629943-.9460143 3.9039993-.8990173 3.9509963z"/><path d="m286.821991 118.6539993c.0950012.0469971.4259949-1.1289978 1.2770081-2.3519974.8040161-1.2229996 1.8909912-1.8339996 1.8439941-1.8810043 0-.0469971-.2839966.0940018-.7089844.3759995-.4259949.2820053-.8990173.753006-1.3240051 1.364006-.9460144 1.2229996-1.183014 2.4929962-1.0880127 2.4929962z"/><path d="m286.8699951 170.102005c.0469971 0 .0939941-.4230042.28302-1.1760101.1889954-.7519989.5679932-1.8339996 1.2299805-3.1029968 1.2290039-2.5399933 3.4989929-5.7379913 6.3840027-8.9830017 1.4190063-1.6459961 2.8380127-3.151001 3.9729919-4.6089935 1.1820068-1.4580078 2.1280212-2.8679962 2.8370056-4.0910034.7099915-1.2229919 1.1820068-2.3049927 1.4190063-3.0570068.1419983-.3759918.2359924-.6579895.2839966-.8470001.0469971-.1879883.0939941-.3289948.0939941-.3289948s-.1419983.4230042-.4729919 1.1289978c-.2829895.7519989-.8040161 1.7870026-1.5130005 2.9629974-.7090149 1.2220001-1.7030029 2.5860138-2.8850098 4.0440063-1.1819763 1.4580078-2.5539856 2.9629974-4.019989 4.6089935-2.8840027 3.2450104-5.1539917 6.4900055-6.3840027 9.076004-.6149902 1.2700043-.9459839 2.3990021-1.1350098 3.151001-.0939941.3769989-.1419983.7060089-.1419983.8939972.0480043.2350006.0480043.32901.0480043.32901z"/><path d="m272.5870056 154.1130066s.2839966.1409912.7569885.423996c.4729919.2819977 1.1820068.6580048 1.9389954 1.2689972.757019.6119995 1.6549988 1.3639984 2.5540161 2.3049927.8979797.9400024 1.7969971 2.0220032 2.742981 3.1980133 1.8910217 2.3509979 3.6410217 4.4199982 4.6809998 6.0659943.5210266.8000031.9460144 1.5050049 1.1830139 2.022995.2359924.4700012.3779907.7519989.4249878.7519989 0 0 0-.0939941-.0469971-.1879883-.0469971-.1410065-.1419983-.32901-.2359924-.5640106-.2369995-.5179901-.6149902-1.2229919-1.1350098-2.0699921-1.0409851-1.6930084-2.742981-3.8090057-4.6349792-6.1130066-.9460144-1.1759949-1.8919983-2.2579956-2.7900085-3.197998-.8989868-.9409943-1.7969971-1.6929932-2.6010132-2.3049927-.8039856-.5640106-1.5130005-.9869995-1.9859924-1.2220001-.2369995-.1419983-.4729919-.1890106-.5679932-.2360077-.1889955-.1409913-.2839967-.1880036-.2839967-.1409913z"/><path d="m272.3039856 159.2859955c0 .0469971.6140137.0940094 1.5600281.2350006.992981.1410065 2.3179932.2819977 3.7359924.7519989 1.4190063.4710083 2.6009827 1.1760101 3.3580017 1.7400055.7569885.6119995 1.1349792 1.0820007 1.1820068 1.0350037 0 0-.0470276-.1410065-.2360229-.3760071s-.4259949-.5169983-.8039856-.8470001c-.757019-.6579895-1.9389954-1.3639984-3.4049988-1.8339996s-2.8380127-.6109924-3.8309937-.6580048c-.9460143-.0939942-1.560028-.0939942-1.560028-.0469971z"/><path d="m281.7149963 162.4839935c.0939941-.0469971-.6149902-1.1279907-1.1829834-2.5859985-.5200195-1.4579926-.6620178-2.7749939-.7090149-2.7279968-.0469971 0-.0469971.3289948.0469971.8470001.0480042.5169983.1900024 1.2220001.4729919 1.9750061.2840271.7519989.6150208 1.3639984.8990173 1.8339996.2359925.4229889.4249879.6579895.472992.6579895z"/><path d="m268 140.1459961s.0950012.0469971.2359924.1410065c.1900024.0939941.4259949.1880035.757019.3289948.3309937.1410065.7089844.32901 1.1819763.5639954.4260254.2350006.9460144.4700012 1.5140076.8000031.2829895.1410065.5670166.32901.8510132.4700012.2839966.1880035.6149902.3760071.8989868.5640106.6140137.3759918 1.276001.8469849 1.9380188 1.3169861 1.3249817.9880066 2.742981 2.2100067 4.0679932 3.5740051 1.3240051 1.3639984 2.4589844 2.8220062 3.4519958 4.1860046.4729919.7050018.8980103 1.3170013 1.2770081 1.9749908.1889954.32901.3779907.6110077.519989.9410095.1419983.2819977.3309937.6109924.4729919.8929901.2839966.5640106.5200195 1.0820007.756012 1.5050049.2369995.4700012.3789978.8470001.5209961 1.1759949.1419983.2820129.2359924.5640106.3309937.7519989.0939941.1880035.0939941.2350006.1419983.2350006 0 0 0-.0939941-.0950012-.2819977-.0469971-.1879883-.1419983-.4700012-.2839966-.7519989-.0939941-.3300018-.2839966-.7529907-.4729919-1.1759949-.1889954-.4700012-.4249878-.9880066-.7090149-1.552002-.1419983-.2819977-.2839966-.5639954-.4259949-.8939972-.1419983-.32901-.3309937-.6110077-.519989-.9400024-.3779907-.6580048-.8040161-1.3170013-1.2770081-2.0220032-.9459839-1.3639984-2.1279907-2.821991-3.4519958-4.2330017-1.3710022-1.3639984-2.7900085-2.5859985-4.1140137-3.5739899-.7099915-.4700012-1.3249817-.9410095-1.9869995-1.3170013-.3309937-.1880035-.6139832-.3760071-.9449768-.5640106-.2839966-.1879883-.6150208-.3289948-.8990173-.469986-.5669861-.3300018-1.0879822-.5650024-1.5130005-.753006-.4729919-.2350006-.8519897-.3760071-1.1829834-.5169983-.3309937-.1410065-.5670166-.2350006-.756012-.2819977-.1889954-.0940093-.2839966-.0940093-.2839966-.0940093z"/><path d="m279.2550049 147.6699982s-.0939941-.4230042-.6140137-.9409943c-.5209961-.4700012-1.4190063-.9400024-2.5069885-.9400024-1.0880127-.0469971-1.9859924.2819977-2.6480103.5169983-.6149902.2350006-.992981.4700012-.992981.4700012 0 .0469971.4249878-.0939941 1.039978-.3289948.6620178-.1880035 1.5610046-.4700012 2.5540161-.4230042.992981.0469971 1.8909912.4230042 2.4119873.845993.5200197.4240113.709015.8000032.7560121.8000032z"/><path d="m280.9580078 149.4100037c.0950012-.0469971-.5670166-.9880066-.7090149-2.3050079-.1889954-1.3159943.2359924-2.397995.1419983-2.397995-.0480042 0-.1900024.2350006-.2839966.6580048-.1419983.423996-.1889954 1.0820007-.1419983 1.7399902.0950012.7060089.3309937 1.2700043.519989 1.6940002.2369996.4230041.4260254.6110077.4730225.6110077z"/></g><path d="m299.3070068 172.6889954c-.3789978 6.8670044-2.4590149 13.8270111-5.6750183 20.881012h-13.9039917c-3.0740051-7.0070038-4.9649963-13.9670105-5.3439941-20.881012z" fill="#263238"/><path d="m276.6539917 183.7879944c0 .0940094 4.5880127.1410065 10.2149963.1410065 5.6280212 0 10.2150269-.0469971 10.2150269-.1410065 0-.0939941-4.5870056-.1419983-10.2150269-.1419983-5.6269836 0-10.2149963.0480041-10.2149963.1419983z" fill="#fafafa"/><path d="m276.9849854 186.2810059c0 .0939941 4.3040161.1409912 9.6000061.1409912 5.2969971 0 9.6010132-.0469971 9.6010132-.1409912 0-.0940094-4.3040161-.1410065-9.6010132-.1410065-5.29599 0-9.6000061.0469971-9.6000061.1410065z" fill="#fafafa"/><path d="m293.4429932 177.2039948c-.0939941 0-.1419983 1.4110107-.1419983 3.197998 0 1.7400055.0480042 3.1980133.1419983 3.1980133.0950012 0 .1419983-1.4110107.1419983-3.1980133 0-1.7869873-.0950013-3.197998-.1419983-3.197998z" fill="#fafafa"/><path d="m285.9710083 177.2039948c-.0950012 0-.1419983 1.4580078-.1419983 3.2920074s.0469971 3.2919922.1419983 3.2919922.1419983-1.4579926.1419983-3.2919922-.0469971-3.2920074-.1419983-3.2920074z" fill="#fafafa"/><path d="m278.9719849 177.1089935c-.0949707 0-.1419983 1.5050049-.1419983 3.3860016 0 1.8820038.0470276 3.3860016.1419983 3.3860016.0950012 0 .1420288-1.5039978.1420288-3.3860016 0-1.8809967-.0470276-3.3860016-.1420288-3.3860016z" fill="#fafafa"/><path d="m274.8569946 177.2039948c0 .0940094 5.3919983.1410065 12.0119934.1410065 6.6210022 0 12.0120239-.0469971 12.0120239-.1410065 0-.0939941-5.3910217-.1419983-12.0120239-.1419983-6.6199951 0-12.0119934.0480041-12.0119934.1419983z" fill="#fafafa"/><path d="m34.9958 178.2380066-2.2700005 11.4279938-4.3507995 8.5590057c-.3309994.6119995-.0473003 1.3639984.6147995 1.6459961.3784008.1419983.7567005.1409912 1.0876999-.0940094 2.1281013-1.2689972 9.8838997-6.0659943 9.9785004-6.9129944.1418991-.9869995 3.168499-11.897995 3.168499-11.897995z" fill="#00a87b"/><path d="m28.9897003 199.8710022 11.2080994-7.7600098-.0946007.4710083c-.0946007.4230042-.3309975.798996-.6620979 1.0339966-.8985023.7060089-3.4995003 2.5400085-9.3637009 6.1609955-.3309994.2350006-.7565994.2350006-1.0876999.0940094z" fill="#263238"/><path d="m38.6847992 188.7259979c-.3311005.1410065-.5201988.5639954-.3783989.8939972.1418991.32901.520298.5169983.8512993.3760071.3310013-.1410065.5675011-.6110077.425602-.9410095-.1419029-.3289948-.6621017-.5169983-.9458008-.3289948" fill="#ebebeb"/><path d="m32.6785011 195.451004c-.0946007 0-.1892014-.6589966-.8040009-1.0820007-.6147995-.4700012-1.2768002-.4700012-1.2768002-.5169983 0-.0470123.1417999-.0940094.4256001-.0470123.283699 0 .6620998.1410065.9930992.4230042.3310013.2819977.5201988.6110077.6147995.8460083.0946008.1889953.0946008.3769988.0473023.3769988z" fill="#263238"/><path d="m31.5433998 196.8139954c-.0473003.0469971-.3311005-.4229889-.8985996-.7050018-.5675011-.3289948-1.0876999-.3289948-1.0876999-.3759918s.5674992-.1880035 1.229599.1409912c.5675011.3290099.8040008.8930053.7567005.9400024z" fill="#263238"/><path d="m34.6175995 193.8049927c-.0472984.0470123-.5201988-.6589966-1.3241005-1.1759949-.8040009-.5639954-1.6079998-.7050018-1.6079998-.7519989s.8985996-.0469971 1.7497997.5639954c.8986016.5640106 1.2769013 1.3639984 1.1823006 1.3639984z" fill="#263238"/><path d="m35.6108017 190.4190063c-.0473022.0469971-.6148033-.32901-1.4188004-.5640106-.8039017-.2350006-1.5133018-.1409912-1.5133018-.2350006 0-.0469971.7094002-.2350006 1.6078987 0 .8040009.2350006 1.3715019.7519989 1.3242035.7990112z" fill="#263238"/><path d="m36.3674011 187.0789948c-.0473022.0470123-.6147995-.4700012-1.4659996-.6109924-.8513031-.1880035-1.5607033.1409912-1.6079025.0469971 0-.0469971.1417999-.1410065.425602-.2350006.283699-.0939941.7565994-.1409912 1.229599-.0469971.4729004.0939941.8512001.2819977 1.0876999.4700012.2364005.1880035.3310012.3289947.3310012.3759918z" fill="#263238"/><path d="m35.0430984 185.8099976s0-.1409912.0946007-.4230042c.0946007-.2819977.2364998-.6579895.6147995-1.0349884.1892014-.1880035.3782997-.4230042.7094002-.5169983.1891022-.0470123.425602.0469971.5202026.2350006.0945969.1879883.0945969.3759918.0472984.5639954-.1892014.7059937-.9458008 1.2700043-1.7971001 1.2229919-.8512001-.0939941-1.4659996-.7050018-1.655201-1.4109955-.0472984-.1880035-.0472984-.3759918.0946007-.5639954s.3782997-.1880035.5201988-.1410065c.3310013.1410065.5202026.3760071.6621017.5639954.3310013.4240112.4729004.8000031.5675011 1.0350037.0946007.2819977.0946007.4230042.0946007.4230042-.0473022 0-.1892014-.6110077-.8040009-1.3639984-.1892014-.1880035-.3310013-.3760071-.6147995-.4700012-.0946007-.0469971-.2364006 0-.2837029.0939941-.0472984.0940094-.0945969.2350006-.0472984.3760071.1418991.5650024.7565994 1.1289978 1.4659996 1.2229919.7094002.0470123 1.3715019-.4229889 1.5133018-.9879913.0472984-.1410065.0472984-.2819977-.0473022-.3760071-.0472984-.0939941-.1417999-.1409912-.283699-.1409912-.2364998.0469971-.425602.2350006-.6147995.4229889-.6147993.6590118-.7094 1.3170013-.7567023 1.2700043z" fill="#263238"/><path d="m73.3491974 179.1320038 1.8916016 11.4749908 4.1616974 8.6529999c.2837067.6110077 0 1.3639984-.6620941 1.6460114-.3784027.1409912-.7566986.0939941-1.0876999-.0940094-2.0808029-1.3639984-9.6948013-6.348999-9.789299-7.1949921-.0946045-.9880066-2.8375015-11.9930115-2.8375015-11.9930115z" fill="#00a87b"/><path d="m78.7406006 200.9060059-11.018898-8.0420074.0945969.4710083c.0944977.4229889.283699.798996.6620026 1.0809937.8985977.7059937 3.4049988 2.6340027 9.1745987 6.3959961.3310012.1880034.7565993.2350005 1.0876998.0940093z" fill="#263238"/><path d="m69.3764038 189.5249939c.3310928.1410065.5202942.5640106.3783951.8930054-.1418991.3300018-.5674973.5180054-.8985977.3769989-.3310013-.1409912-.5675049-.6119995-.3783035-.9409943.1892014-.32901.6621017-.5169983.9458008-.2819977" fill="#ebebeb"/><path d="m75.1937027 196.3910065c.0944977 0 .2363968-.6110077.8511963-1.0810089.6147995-.470993 1.2769012-.423996 1.2769012-.5179901 0-.0470123-.1418991-.0940094-.4255981-.0940094-.2838058 0-.6621017.1410065-.9932022.3760071-.3310013.2359924-.5674973.6119995-.6620026.8470001-.0945968.2819976-.0945968.4700012-.0472946.4700012z" fill="#263238"/><path d="m76.2811966 197.7550049c.0473022.0469971.3784027-.4240112.9459-.7060089.5675049-.2819977 1.0876999-.2819977 1.0876999-.3759918 0-.0469971-.5674973-.1880035-1.229599.1409912-.6147996.376007-.8511963.9410095-.8040009.9410095z" fill="#263238"/><path d="m73.3015976 194.6990051c.0473022.0469971.5202026-.6590118 1.3715057-1.1289978.8511963-.5170135 1.6551971-.6590118 1.6551971-.7060089s-.8984985-.0469971-1.7498016.5180054c-.9930954.5169983-1.3713989 1.3170013-1.2769012 1.3170013z" fill="#263238"/><path d="m72.4030991 191.2649994c.0473022.0469971.6147995-.3289948 1.4661026-.5169983.8039017-.1880035 1.513298-.0939941 1.513298-.1880035 0-.0469971-.7093964-.2819977-1.6079025-.0469971-.8512955.1880035-1.4188004.7050018-1.3714981.7519989z" fill="#263238"/><path d="m71.7412033 187.9259949c.0472946.0470123.6147995-.4229889 1.513298-.5639954.8985977-.1410065 1.5606995.1880035 1.6078949.0939941 0-.0469971-.1417999-.1409912-.4255981-.2350006-.283699-.0939941-.7092972-.1879883-1.1822968-.0939941-.4729004.0939941-.8512039.2819977-1.1350021.4700012-.283699.1410065-.3782959.2819977-.3782959.3289948z" fill="#263238"/><path d="m73.1128006 186.7030029s0-.1410065-.0473022-.4230042c-.0945969-.2819977-.236496-.6580048-.5674973-1.0820007-.1418991-.1880035-.3311005-.4230042-.709404-.5169983-.1890945-.0469971-.4255981.0469971-.520195.1880035-.0946045.1880035-.0946045.3759918-.0946045.5639954.1418991.7060089.8986053 1.3170013 1.7498016 1.2700043.8513031-.0469971 1.513298-.6580048 1.7024994-1.3639984.0473022-.1880035.0473022-.3760071-.0945969-.5640106-.1418991-.1879883-.3783035-.2350006-.5202026-.1409912-.3310013.0939941-.5202026.3289948-.6621017.5169983-.3309937.3759918-.520195.753006-.6147995 1.0350037-.0944977.2819977-.0944977.4229889-.0944977.4229889.0473022 0 .1891022-.6109924.8511963-1.3639984.1892014-.1879883.3783035-.3759918.6148071-.4700012.0945969-.0469971.236496 0 .283699.0940094.0472946.0939941.0472946.2350006.0472946.3759918-.1890945.5650024-.803894 1.1289978-1.513298 1.1760101-.7093964.0469971-1.3713989-.4700012-1.513298-1.0350037-.0473022-.1410065 0-.2819977.0473022-.3760071.0472946-.0939941.1890945-.1409912.283699-.0939941.236496.0469971.4255981.2819977.6147995.4230042.6147996.7529906.7093965 1.4109954.7566987 1.3639983z" fill="#263238"/><path d="m36.1306992 103.3690033c-1.0876999-1.5990067-5.4857998 86.25-5.2019997 86.7200012l11.6809006.1889954 6.337101-46.9349976 3.452198-35.8830032 5.5804024 33.7199936 6.8099976 49.427002 12.7686005.1880035-7.8975983-89.5889969-16.5046997-9.4062042z" fill="#263238"/><path d="m47.2444992 44.3479996s-3.594101.6114006-4.9183006 1.7871017c-1.3713989 1.1756973-2.742897 3.9034004-2.742897 3.9034004l-6.8100014 4.6086998 6.0060005 23.7024002-5.0128021 32.7793961.993103 2.8209991 37.5019951-.6110001.709404-2.586998-3.8778992-29.8157958 1.7024994-19.9871025 1.5606003-8.0419006-6.8098984-3.0098s3.1212006-.9406013 3.2630997-1.5048981c.1417999-.5174026-6.9992027-4.1856003-6.9992027-4.1856003s-11.3026009-1.8810997-14.5657006.1410981z" fill="#00a87b"/><path d="m35.8945007 95.75c4.2089996 5.4550018 10.0257988 9.4530029 15.700798 13.4029999 1.1822014.8470001 2.4591026 1.6930008 3.877903 1.9749985 2.0334969.4240036 4.3034973-.5169983 5.4384995-2.2569962.8038979-1.2700043 1.0876999-2.8219986 2.0807991-3.9500046.6620979-.7529984 1.5606003-1.2699966 2.2699966-1.9759979.6147995-.6110001 1.0404053-1.409996 1.4660034-2.163002.7566986-1.4107971 1.5606003-2.7745972 2.3172989-4.1855011-2.8375015 0-5.4384995 1.3639069-7.9922981 2.5866013-2.5536995 1.2229004-5.391201 2.3039017-8.1341019 1.6929016-3.8306007-.8460007-6.2424011-4.7498016-9.9311981-6.1136017-2.3171997-.8464966-5.0128021-.6113968-7.0937004.6584015" opacity=".027"/><path d="m32.7733002 54.6475983s-1.4186993 1.7871017-1.7024002 5.5023003c-.2838001 3.7153015-2.7429008 23.2791023-1.8917007 26.1008034.8040008 2.8218001 11.3026008 14.5322951 14.8022002 14.249298l1.3241997-.4700012 1.2294998.9410019 5.5804024-4.1858978-12.3430023-15.4253007.6620026-22.1975021c-.0000001.0470009-3.7833024-5.3611984-7.6612015-4.5147018z" fill="#00a87b"/><path d="m42.3260002 46.1815987s-.0946007.094101-.283699.2352028c-.1892014.1880989-.4729996.4702988-.7567024.8934975-.2837982.4233017-.6147995.9406013-.9930992 1.5990028-.3783989.6113968-.8512993 1.3638-1.3714981 2.1632996l-.0946007-.0940018c.6620979-.2821999 1.513401-.2821999 2.3172989 0 .8040009.2350998 1.5606003.7053986 2.3172989 1.2696991 1.5133018 1.1287003 2.8375015 2.6807022 4.161602 4.467701 2.6483994 3.5741997 5.2020988 7.9948997 7.6611977 12.8858986v.0470047.046997c-.0472984 1.9281998-.0944977 3.9504013-.1890984 6.0196991-.2837982 10.4873047-.5675011 19.9870987-.7566986 26.8534012-.0946007 3.4329987-.1892014 6.2080002-.2364006 8.1360016-.0473022.9399948-.0473022 1.6930008-.0946007 2.2099991 0 .2350006 0 .4229965-.0472984.5639954v.189003s0-.0469971 0-.189003c0-.1409988 0-.3289948 0-.5639954 0-.5169983 0-1.2700043.0472984-2.2099991.0472984-1.9280014.0946007-4.7030029.1890984-8.1360016.1892014-6.8663025.3784027-16.3660965.7094002-26.9004974.0473022-2.0692062.1419029-4.0914001.1892014-6.0195999v.046997c-2.459198-4.8909988-5.0129013-9.3115997-7.6138992-12.8857994-1.3241997-1.7871017-2.6483994-3.3390007-4.114399-4.467701-.7566032-.5643997-1.5133018-.9875984-2.2700005-1.2697983-.7565994-.2350998-1.5606003-.2350998-2.222702 0l-.1890984.0469971.0946007-.1880989c.5201988-.7994995.9930992-1.5048981 1.3713989-2.1162987.3782997-.6113014.7094002-1.1757011.9930992-1.5988998.283802-.4233017.5675011-.7055016.8040009-.8465004.2364005-.1411019.3782996-.1882019.3782996-.1882019z" fill="#263238"/><path d="m67.532402 49.0038986c0 .0470009-.709404.2350998-1.8443985.7054024-1.1350021.4702988-2.6956024 1.1756973-4.161602 2.3043976-1.4661026 1.1287003-2.6484032 2.3515015-3.452301 3.2450027-.3782997.4232979-.7094002.7524986-.9930992 1.0816994-.2364998.2350998-.3784027.3761978-.3784027.3761978s.0946007-.1880989.3311005-.4232979c.1891022-.2821007.5202026-.6584015.9458008-1.1287003.8040009-.9405022 1.9389-2.2103004 3.452301-3.3390007 1.513298-1.1287003 3.0738983-1.8340988 4.2562027-2.2573013.5674973-.1881981 1.0403976-.3291969 1.3713989-.4232979.2837982-.1411018.4729995-.1411018.4729995-.1411018z" fill="#263238"/><path d="m55.2841988 69.6959991s0-.2350998.0473022-.7053986c.0472984-.4232025.1417999-1.081604.283699-1.8811035.2837982-1.598999.8040009-3.7622986 1.5133018-6.1136971.7093964-2.3515015 1.4660988-4.467701 2.0808983-5.9255981.3310013-.7525024.6147995-1.316803.8512001-1.7401009.2364998-.3762016.3782997-.6113014.3782997-.6113014s-.0945015.2350998-.283699.6583023c-.1892014.4232979-.4729004.9875984-.7567024 1.740097-.6147995 1.5049019-1.3240967 3.5741997-2.0334969 5.925602-.7094002 2.3513985-1.2296028 4.5147018-1.5606003 6.0666962-.1892014.7994995-.283802 1.4108047-.3782997 1.8811035-.0473022.4233018-.0946006.7053986-.1419028.7053986z" fill="#263238"/><path d="m56.4662018 56.5751991c-.0473022-.0471001.803997-1.9281998 1.9389992-4.2325974 1.1349983-2.3044014 2.0807991-4.1385002 2.1280975-4.1385002.0473022.0469971-.803997 1.9281998-1.9389992 4.2325974-1.0876999 2.3044014-2.0807991 4.1385002-2.1280975 4.1385002z" fill="#263238"/><path d="m57.6483994 65.3694.0946006-.235199c.0946007.094101.2837982.141098.4255981.141098.1892014 0 .283802-.0469971.283802-.141098 0-.2350998-.8040009-.0940018-.7566986-.6112976 0-.2352066.1891975-.4233017.5674973-.4233017.1892014 0 .3311005.0469971.4729004.141098l-.0944977.2350998c-.1419029-.0940018-.2364998-.0940018-.3784027-.0940018-.1890984 0-.2364006.0470047-.2364006.1411057 0 .2350998.8039017.0939941.7566032.5642929 0 .2351074-.1891022.4233017-.5675011.4233017-.2364005 0-.4729003-.0470962-.5675009-.141098z" fill="#fff"/><path d="m60.0130997 65.2751999v.2350998h-1.0404015v-1.3638h1.0404015v.2350998h-.7094002v.2822037h.6147995v.2350998h-.6147995v.3292007z" fill="#fff"/><path d="m60.2020988 64.8518982c0-.4231949.3311005-.7053986.7567024-.7053986.2364998 0 .4255981.0940018.5674973.2350998l-.1891975.1881027c-.0945015-.0940018-.1891022-.1409988-.3310013-.1409988-.2364998 0-.4255981.1880951-.4255981.4231949 0 .235199.1890984.4233017.4255981.4233017.1418991 0 .2364998-.0470963.3310013-.141098l.1891975.1880951c-.1418991.1411057-.3309975.2350998-.5674973.2350998-.4729003 0-.7567024-.2820969-.7567024-.7053986z" fill="#fff"/><path d="m62.7084999 65.1808014c0-.0470047-.0472984-.141098-.0472984-.1881027 0-.0469971-.0473022-.094101-.0473022-.141098v.141098c0 .2350998-.0946007.3761978-.2837982.3761978-.1891022 0-.2837029-.0939941-.2837029-.3761978v-.7525024h-.3310966v.7525024c0 .3761978.2364998.6114044.6147995.6114044.2364998 0 .3782997-.094101.5201988-.2352066-.0946007-.0469971-.1418-.141098-.1418-.1880951z" fill="#fff"/><path d="m62.7559013 64.5233994v.4702988.0471039c0 .0469971.0472984.0469971.0472984.0940018 0 .0469971.0471992.0940933.0471992.1880951.0473022.141098.0473022.2822037.0473022.4233017.0945969-.094101.1891975-.2822037.1891975-.4702988v-.7525024h-.3309973z" fill="#fff"/><path d="m64.2219009 65.9340973-.2364998-.3761978h-.283802v.3761978h-.3309975v-1.3638h.5674973c.3782997 0 .5675011.1881027.5675011.5173035 0 .1881027-.0945969.3292007-.283699.4233017l.283699.4231949h-.2836991zm-.283802-1.1286011h-.2364998v.4702072h.2364998c.1891975 0 .283802-.0940018.283802-.2350998 0-.1411056-.0946045-.2351074-.283802-.2351074z" fill="#fff"/><path d="m64.7895966 64.5702972h.3310013v1.3638h-.3310013z" fill="#fff"/><path d="m65.735199 64.8523026h-.4255981v-.2350998h1.1822968v.2350998h-.4256973v1.0816956h-.3310014z" fill="#fff"/><path d="m67.248703 65.4638977v.4701996h-.3310013v-.4701996l-.5202026-.8936005h.3310013l.3310013.6114044.3783951-.6114044h.3310013z" fill="#fff"/><path d="m63.8908997 68.9914017s-.0945015-.141098-.1890984-.3762054c-.0946007-.235199-.2364998-.5643997-.3784027-1.0346985-.283699-.8464966-.6147003-2.1162949-.8038979-3.4800949-.1892014-1.4108009-.1892014-2.680603-.0946007-3.5742035.0472984-.4701996.0946007-.8465004.1418991-1.0816002.0473022-.235199.0946007-.3761978.0946007-.3761978.0472984 0 0 .5643005-.0472984 1.457798-.0473022.8936005 0 2.1634026.1891975 3.5271988.1891022 1.3638.4729004 2.5866013.709301 3.4801025.1892014.8935013.3782998 1.457901.3782998 1.457901z" fill="#263238"/><path d="m56.229599 65.2286987c-.1890984 1.6930008-.7565994 2.4925003-.7565994 4.1855011 0 .376297-.5675011 6.0667038-.2364998 6.2078018.3782997.141098 1.9389-3.9973984 2.2700005-6.0667038.2364006-1.5988998.709301-3.7622986.9930992-5.3611984.8040009-4.7028999 2.5536995-7.2893982 5.0129013-11.3808975.4729004-.7995033 2.2226982-2.915802 2.2226982-2.915802-.1892014-.0940018-.8512955.235199-1.3241959.4233017-1.3714027.6112976-3.877903 2.5864983-3.877903 2.5864983s-1.5133018 2.8688011-1.9861984 4.2795982c-.993103 2.7277031-1.7025032 5.5494003-2.2700005 8.2770004" opacity=".027"/><path d="m40.6236992 50.8848s-1.513298.8465004-1.513298 1.5049019c0 .6583977.5201988 1.2226982 1.0876999 1.551899.5674973.3292007 1.2767982.4702988 1.8915977.7053986 1.4659996.5643997 2.6956024 1.598999 3.8306007 2.7276993 1.8444023 1.8341026 3.452301 3.8563004 4.7764015 6.0667 1.0876999 1.8340988 2.1280975 3.8563004 3.9724998 4.9380035-1.2769012-2.2574005-2.5536995-4.4207039-3.8306007-6.6310005-1.2769012-2.2104034-2.6955986-4.373703-4.3507996-6.3488998-1.6078986-1.9282038-4.303501-4.3266031-5.8641013-4.514702z" opacity=".027"/><path d="m35.1851006 83.9465027s0-.0471039 0-.1411057c0-.0940933 0-.1880951 0-.376297.0471992-.3292007.1417999-.7994003.4729004-1.2696991.3309975-.4702988.8984985-1.0346985 1.7024994-1.2228012.8038979-.1881027 1.7970009-.0469971 2.6009979.5643997l-.1891975.0940018c-.0946007-1.4108047 0-3.0568008.2837982-4.7499008.2364006-1.5519028.5202026-3.0098038.709301-4.3265991.1892014-1.316803.2364998-2.539505.2837982-3.5742035.0473022-1.0345993.0473022-1.8340988 0-2.3983994 0-.282196 0-.4702988 0-.6584015 0-.141098 0-.235199 0-.235199s0 .094101.0473022.235199c0 .1881027.0472984.3762054.0472984.6584015.0473022.5643005.0945015 1.4108047.0473022 2.4455032 0 1.0345993-.0473022 2.2573013-.2364998 3.5740967-.1419029 1.3638992-.425602 2.8218002-.6621017 4.373703-.283699 1.6459961-.3782997 3.2449951-.283699 4.7028961v.2350998l-.1892014-.141098c-.7094002-.6113968-1.7024994-.7523956-2.4118996-.5643005-.7565994.1881027-1.3241005.6584015-1.6078987 1.1287003-.3310013.4701996-.425602.9404984-.4729004 1.222702-.1417998.2350998-.1417998.4233017-.1417998.4233017z" fill="#263238"/><path d="m36.3676987 95.3742981s.0473022.0470047.1417999.1409988c.0946007.094101.2364998.2352066.4257011.4233017.3782997.3292007.8984985.8465042 1.655201 1.457901.709301.5643005 1.655201 1.2696991 2.7429008 1.9281006.5674973.3292007 1.1822968.6584015 1.8442993.8934021.3311005.1409988.7094002.1879959 1.0403976.1409988.3784027-.0470047.7094002-.1880035.9932022-.4230042l.0944977-.0939941.0946007.0469971c.3784027.2819977.8040009.6110001 1.2296028.9410019h-.1419028c1.7024994-1.2702026 3.5942001-2.6810989 5.5804024-4.1860046v.1881027c-.0473022-.0469971-.0473022-.0940018-.0946007-.1409988-1.7024994-2.0692978-3.168499-4.1386032-4.5872002-6.0196991-1.3715019-1.8340988-2.6483994-3.5271988-3.7360992-4.8909988s-2.0335007-2.4455032-2.6956024-3.1509018c-.3309975-.3761978-.6147995-.6584015-.7565994-.7994995-.1891975-.1881027-.2837982-.2821045-.2837982-.2821045s.0946007.0940018.2837982.2350998c.1891022.1881027.4729004.4233017.8039017.7994995.7094002.7054062 1.6551971 1.7871017 2.742897 3.1039047 1.1350021 1.3638 2.4119034 3.0097961 3.7833023 4.843895 1.4188004 1.8341064 2.9320984 3.9034042 4.5872993 5.9726028.0472984.0471039.0472984.094101.0946007.141098l.0946007.094101-.0946007.0940018c-1.9863014 1.457901-3.8778992 2.8687973-5.5803986 4.1389008l-.0473022.0469971-.0472984-.0469971c-.425602-.3300018-.8512001-.6590042-1.2296028-.987999h.1419029c-.3310014.3289947-.7094003.4700011-1.1350022.5169982-.3782997.0469971-.8038979-.0469971-1.1349983-.1880035-.709301-.2819977-1.2768021-.6110992-1.8442993-.9403-1.1350021-.7053986-2.0335999-1.3638-2.7429008-1.9751968-.7094002-.6113968-1.229599-1.1287003-1.6079025-1.5048981-.1418991-.1882019-.2837982-.3292007-.3783989-.4233017-.1890985 0-.2364007-.0469971-.2364007-.0940018z" fill="#263238"/><path d="m40.8600006 60.8078003c-.0473022 0-.2364998-.5643005-.6621017-1.3638-.2364006-.4233017-.5201988-.8935013-.8984985-1.3638s-.8512994-.9875985-1.4188004-1.4109002c-.5675011-.4702988-1.1349983-.7994995-1.655201-1.1287003-.5674973-.2821007-1.0403976-.5172997-1.513298-.6584015-.8985023-.2820969-1.4659996-.3761978-1.4659996-.4231987h.4255981c.283802.0470009.6621017.0940018 1.0876999.2350998.4729004.1411018.9930992.3292007 1.5606003.6114006s1.1350021.6584015 1.7024994 1.1287003c.5675011.4702988 1.0404015.9875984 1.4188004 1.457901.3782997.5172997.6619987.9875984.8985023 1.4107971.1891975.4233017.3782997.7995033.4255981 1.0346031.0946007.329197.0946007.4702988.0946007.4702988z" fill="#263238"/><path d="m63.4183998 67.8156967c.1418991.3292007.7094002.1410065.7567024-.141098.0471954-.282196-.0473022-.5172958-.1892014-.7525024-.8985023-1.6929932-1.4188004-3.5270958-1.5606003-5.4552956-.0946006 2.3043976.1418 4.1854973.9930993 6.348896z" opacity=".027"/><path d="m34.9958 83.4284973c-.4255981-1.3167953.1892014-2.8687973 1.4188004-3.5271988.3310013-.1880951.6619987-.282196.9930992-.282196.7565994.0470963 1.3241005.7524948 1.7498016 1.3638992-.8513031-.235199-1.7971001-.141098-2.5538025.3292007-.7565994.4702988-1.3241005 1.2226944-1.4659996 2.1162949" opacity=".027"/><path d="m71.9304962 55.0231018c.0473022 0-.236496.4702988-.6620941 1.2226982-.3783035.7524986-.8984985 1.7871017-1.2769012 3.0098-.3783035 1.2228012-.6147003 2.3515015-.7565994 3.1980019-.1418991.8464966-.1418991 1.3638-.1892014 1.3638s-.0473022-.5173035 0-1.3638c.0945969-.8465004.2837982-2.0223007.6621017-3.2450027.4255981-1.2226982.9458008-2.3043976 1.3713989-3.0098.4729004-.7994996.8040009-1.2227975.8512955-1.1756974z" fill="#263238"/><path d="m68.8094025 66.9218979c-.2365036.2821045-.3310013 2.4455032-.3310013 2.4455032 0 2.6335983.1891022 3.8092957.1891022 6.4429016 0 1.0815964 0 2.2102966-.2837067 3.2448959-.1418991.5643997-.3783951 1.0817032-.6147995 1.598999-.2837982.6584015-.6147995 1.3638-1.0403976 1.9281998-.3784027.5173035-.8040009.9406052-1.229599 1.3638-2.0807991 2.0693054-4.0198021 4.3265991-5.7223015 6.7721024l-1.0403976 1.5048981 10.3094978-9.6408005.5203018-1.2697983.0471954-.141098z" opacity=".027"/><path d="m72.3563995 52.9541016s1.6079025.6113968 2.459198 4.2325974c.993103 4.1855011 2.2699051 11.0987015 2.4590988 13.7322998.1892014 2.2104034 2.3646011 10.2522049.6621017 13.8264008-1.7024994 3.5271988-9.8366013 14.5317993-13.0523987 14.8610001l-1.3241997-.3292007-1.4187012.235199-3.9724998-4.514801.3310014-1.3167956s-.4255981-.7053986 0-1.3638c.4729004-.6584015 10.5459976-10.0641022 10.5459976-10.0641022s-.3782959-.0469971-.4729004-.7053986c-.1418991-1.1287003.8512039-1.0817032.8512039-1.0817032l-.6620026-9.8759995z" fill="#00a87b"/><path d="m72.971199 83.3815994c-.0473022.0469971-.8040009-.4702988-1.8443985-.7994995s-1.9861984-.3292007-1.9861984-.4232025c0-.0470963.9458008-.1881943 2.0335007.1881027 1.1349945.3292008 1.8443985.9876023 1.7970962 1.0345993z" fill="#263238"/><path d="m75.0047989 81.8764038c-.0473022.0469971-1.0403976-.8936005-2.6009979-1.2698059-1.5606995-.4231949-2.8848038-.0939941-2.9320984-.1880951 0-.0470047.3309937-.1411057.8511963-.2350998.5202026-.0471039 1.3242035-.0471039 2.1280975.1409988.8040009.235199 1.4661026.6113968 1.939003.9405975.4255981.3292008.6147995.6114045.6147995.6114045z" fill="#263238"/><path d="m69.1404037 82.1591034s-.1891022 0-.3783035-.1410065c-.0945969-.0940933-.1892014-.1880951-.2837982-.376297-.0473022-.1881027-.0473022-.3761978 0-.5643005.0472946-.141098.0945969-.2350998.1418991-.3292007v.0470047c.1418991-.3292007.4729004-.4232025.6147995-.4232025.1892014 0 .2837982.0469971.2837982.0469971 0 .0470047-.0945969.0470047-.236496.094101-.1418991.0470047-.3783035.1409988-.4256058.3292007-.0472946.0940018-.0945969.1881027-.0945969.2820969-.0945969.3292007 0 .6114044.1418991.7525024.1418001.1881026.2836992.2350997.2364045.2821044z" fill="#263238"/><path d="m68.7152023 66.4512024s.0471954.1880951.0944977.5643005c.0473022.3761978.0945969.8464966.1418991 1.5048981.0946045 1.2697983.1892014 3.0098953.283699 4.9379959.0946045 1.9281998.1418991 3.6212006.1892014 4.9380035.0473022.6113968.0473022 1.0817032.0473022 1.5048981v.5643997s-.0473022-.1880951-.0946045-.5643997c-.0472946-.3761978-.0945969-.8464966-.1418991-1.5048981-.0944977-1.2696991-.1890945-3.0098038-.283699-4.9380035-.0945969-1.8810959-.1418991-3.6212006-.1892014-4.9379959-.0471954-.6112976-.0471954-1.081604-.0471954-1.5048981-.0473022-.3762054-.0473022-.5643005 0-.5643005z" fill="#263238"/><path d="m69.3298035 82.1120987s-.0946045.094101-.2365036.235199c-.1892014.1881027-.4255981.3762054-.7566986.6584015-.6620026.6112976-1.6079025 1.4578018-2.7429047 2.4925003-1.1821976 1.081604-2.5536957 2.3514023-4.0669975 3.8563004-.7566986.7525024-1.5606003 1.5048981-2.3645973 2.3514023-.1891022.1881943-.3783035.4233017-.5202026.6584015-.1418992.2351989-.1418992.5173949-.0946008.7994994.0473022.282196.1419029.5643997.1419029.9405975 0 .3292007-.1419029.7053986-.5202026.8935013l.0473022-.1881027c.6620979.7525024 1.3241997 1.5048981 2.0335007 2.3043976.6620979.7525024 1.3714981 1.552002 1.9862976 2.2574005l-.0946007-.0469971c.4729004-.094101.9458008-.141098 1.4187012-.235199.6148033.094101 1.1349983.376297 1.655201.282196.5202026-.0469971.993103-.3292007 1.4187012-.6583939.8512955-.6584015 1.5606995-1.4109039 2.2699966-2.1163025 1.3714981-1.4108047 2.459198-2.774704 3.3577042-3.9034042.8985977-1.1285934 1.6078949-2.0691986 2.1280975-2.6805954.2365036-.2822037.4256973-.5173035.5674973-.7053986.1418991-.1411057.1892014-.235199.1892014-.235199s-.0473022.0940933-.1892014.282196c-.1417999.1881027-.3309937.4233017-.520195.7525024-.4729004.6584015-1.1823044 1.5988998-2.0808029 2.7276001s-1.9861984 2.4925003-3.3576965 3.9504013c-.6621017.7054977-1.4187012 1.4578934-2.2700043 2.1162949-.4255981.3292007-.9458008.6114044-1.5606003.7053986-.6147995.094101-1.1822968-.1880951-1.7024994-.2820969h.0473022c-.4729004.0940018-.9458008.141098-1.4187012.2350998h-.0472984l-.0473022-.0469971c-.6620979-.7525024-1.3241997-1.5049057-1.9861984-2.2574005-.7094002-.7994995-1.3715019-1.598999-2.0335999-2.3044052l-.0945015-.141098.1417999-.0469971c.2364998-.094101.3311005-.3762054.3311005-.6584015 0-.2822037-.0946007-.5643005-.1418991-.8935013-.0473022-.282196-.0473022-.6584015.0946007-.9405975.1418991-.2822037.3309975-.5173035.5674973-.7525024.8512001-.8464966 1.6079025-1.5988998 2.4118004-2.3514023 1.513401-1.4578934 2.9320984-2.7276993 4.1144028-3.8092957 1.1822968-1.0345993 2.1280975-1.8812027 2.8375015-2.4455032.3309937-.282196.5674973-.4702988.7565994-.6584015.2364959-.0940931.3311004-.1880949.3311004-.1410978z" fill="#263238"/><path d="m69.0930023 76.4210968c0 .0470047-6.4316025.0470047-14.3766022-.0939941-7.9449005-.094101-14.3765984-.2822037-14.3765984-.3292007 0-.0471039 6.4316978-.0471039 14.3765984.0940018 7.9449997.1410979 14.3766022.2821959 14.3766022.329193z" fill="#263238"/><path d="m61.6685982 80.3252029v.1880951c0 .094101-.0472984.2822037-.0945969.5173035-.0946007.4233017-.283802 1.0816956-.5675011 1.8340988-.6147995 1.5048981-1.8443985 3.4801025-3.8778992 4.9379959-2.0335007 1.457901-4.3035011 2.0222015-5.9113998 2.1163025-.8040009.0470047-1.4661026 0-1.939003-.0469971-.2363968 0-.3782997-.0471039-.5201988-.094101-.0946007 0-.1891975-.0469971-.1891975-.0469971 0-.0470047.9931984.141098 2.6010971 0 1.6079025-.1411057 3.8306007-.7054062 5.8167992-2.1163025 1.9863014-1.4108047 3.2631035-3.3390045 3.877903-4.7968979.6620979-1.5049056.7566985-2.4925002.803997-2.4925002z" fill="#263238"/><path d="m47.9065018 99.9829025c-.0473022.0470963-.3310013-.094101-.5675011-.3762054-.2364006-.282196-.3310013-.5643997-.283699-.6113968.0472984-.0469971.2363968.1881027.4728966.4233017.2365035.2820969.3783035.5172958.3783035.5643005z" fill="#263238"/><path d="m49.7038002 98.5719986c-.0472984.0470047-.2364006-.141098-.4729004-.4233017-.1890984-.282196-.3310013-.5172958-.2364006-.5643005.0473022-.0470963.2364006.1410065.4729004.4232025.1417999.2822037.283699.5173034.2364006.5643997z" fill="#263238"/><path d="m60.1549988 94.8097992c.0473022.0471039-.2364006.235199-.5674973.4702988-.3310013.235199-.6147003.3762054-.6620026.3292007-.0472984-.0469971.1891022-.3292007.5202026-.5643005.3309976-.1880951.6619988-.2821961.7092973-.235199z" fill="#263238"/><path d="m61.4794006 96.126297c.0472984.0470047-.0946007.3762054-.4729004.7054062-.3311005.3291931-.7094002.4702988-.7566986.4232941-.0473022-.0470963.2364998-.282196.5674973-.6113968.3782997-.2822037.6147995-.5643998.6621017-.5173035z" fill="#263238"/><path d="m62.7561989 97.6780014c.0473022.0469971-.1417999.3292007-.5201988.6112976-.3310013.2822037-.709301.4233017-.709301.3292007-.0472984-.0469971.2364006-.2820969.5675011-.5643005.3782996-.1881027.6147003-.4233017.6619987-.3761978z" fill="#263238"/><path d="m44.4544983 47.639801c.0473022-.0470009.6148033 1.3638 1.6079025 2.9627991.9458008 1.598999 1.9389 2.7747002 1.8915977 2.821701-.0471992 0-.283699-.2350998-.7092972-.7054024-.3784027-.4702988-.8986015-1.1756973-1.3715019-1.9752007-.4729004-.7994995-.8512001-1.598999-1.0876999-2.1632996-.283699-.5643996-.3782996-.9405974-.3310012-.9405974z" fill="#263238"/><path d="m72.9710007 110.7990036s-.1418991 0-.3783035 0c-.2837982 0-.6620941 0-1.1349945 0-1.0404053 0-2.4592056 0-4.2089996.0469971-3.5468025.0469971-8.4651031.1879959-13.9036026.3300018-5.4384995.1409988-10.3568001.2819977-13.9037018.2819977-1.7969971 0-3.2157974 0-4.2089005-.0469971-.4728966 0-.8511963-.0470047-1.1349983-.0470047-.283699 0-.3782997 0-.3782997-.0469971h.3782997 1.1349983c1.0404015 0 2.4592018 0 4.2089005-.0470047 3.5469017-.0469971 8.4652023-.1879959 13.9037018-.3299942 5.4384995-.1409988 10.3568001-.2820053 13.9036026-.2820053 1.7970963 0 3.2158966 0 4.2089996.0470047.4729004 0 .8511963.0469971 1.1349945.0469971.2364044.0470047.3783035.0470047.3783035.0470047z" fill="#263238"/><path d="m63.1814995 48.3919983c-.0472984.0471001-.6147995-.6112976-1.5606003-1.1756973-.8985977-.5643005-1.7497978-.7994995-1.7497978-.8465004s.8984985.0470009 1.8442993.6583977c.9930992.5643005 1.513298 1.3168029 1.4660988 1.3638z" fill="#00a87b"/><path d="m60.1072998 100.3590012c.1892014.3300018.6147995.4710007.9931984.4710007.3783035 0 .7566032-.1409988 1.1350021-.1409988.3782997 0 .8038979.0939941.9930992.4229965.1417999.2819977.1418991.6110001-.0472984.8460007-.1419029.2829971-.3782997.4710007-.6621017.6119995-1.2769012.7519989-2.9794006.564003-4.0671005-.3759995" fill="#b78876"/><path d="m51.4530983 106.1900024c1.1350021 1.0820007 2.3173027 2.1169968 3.6415024 2.9629974.283699.1880035.6147003.3759995.9458008.3290024.3309975-.0470047.6147995-.5170059.3782997-.7519989.3311005.2819977.8984985.2819977 1.2768974.0469971.3310013-.2350006.5202026-.7060013.3782997-1.1289978 0-.0470047 0-.0470047.0473022-.0470047.3310013.1409988.7566986.1409988 1.0403976-.0939941.3310013-.1880035.5202026-.6110001.3783035-.9880066.3310966.4710007 1.1822968.2830048 1.4660988-.2350006.283699-.5169983.0946007-1.1749954-.283802-1.6459961-.3782997-.4700012-.8512001-.7990036-1.3240967-1.1750031-.4729004-.3769989-.8986015-.8470001-.9932022-1.4109955" fill="#b78876"/><path d="m56.6078987 108.9179993c-.0471992.0469971-.6619987-.1879959-1.2294998-.8000031-.5674973-.6109924-.8512993-1.2229996-.803997-1.2699966.0472984-.0469971.4255981.5179977.945797 1.0820007.567501.564003 1.0876998.9410019 1.0876998.987999z" fill="#aa6550"/><path d="m58.3574982 107.836998c-.0472984.0470047-.5674973-.2360001-1.1349983-.7529984-.5201988-.5169983-.8512001-1.0820007-.8040009-1.1289978.0473022-.0470047.4257011.423996.9459.9410019.567501.5169983 1.0404014.8459931.9930992.9409943z" fill="#aa6550"/><path d="m59.9183006 106.7539978c-.0473022.0470047-.5675011-.2350006-1.0876999-.7049942-.5202026-.5170059-.8039017-1.0350037-.7567024-1.0350037.0473022-.0469971.4257011.3769989.9459.8939972.4729004.4230042.8985023.7520066.8985023.8460007z" fill="#aa6550"/><path d="m48.3317986 95.5619965s-.1418991-.6112976 1.4187012-.4231949c1.5606003.1880951 2.2700005.3292007 3.9724998.2350998 1.7498016-.0940018 4.5872002-.5643005 4.5872002-.5643005l4.5400009 3.9973984s-4.6345024 4.0910034-6.053299 4.7969971c-1.3714027.7050018-4.2089005 2.5390015-5.8641014 2.4450073-1.229599-.0470047-1.3241997-.6580048-1.3241997-.6580048s-1.1823006-.798996-1.0404015-1.2229996c0 0-1.4186974-.0940018-1.1349983-1.1750031 0 0-.9930992-.1889954-1.1823006-.7529984-.1417999-.5639954.6147995-1.2699966.8986015-1.5519943.4728966-.4700012 4.6344986-3.4800034 4.6344986-3.5740051.0000001 0-3.4995002-.3292007-3.4522017-1.5520019z" fill="#b78876"/><path d="m51.2640991 99.9830017c.0471992.0469971-.8040009.7519989-1.8443985 1.598999-1.0876999.798996-1.9863014 1.4580002-2.0335007 1.4109955-.0472984-.0469971.8039017-.7529984 1.8442993-1.598999 1.0877-.8470001 1.9863015-1.4580002 2.0335999-1.4109955z" fill="#aa6550"/><path d="m53.4392014 100.4059982c.0472984 0-.1892014.3290024-.5675011.7519989-.3783989.4240036-.9458008.9880066-1.6078987 1.5050049-.7094002.5179977-1.3715019.9409943-1.8444023 1.1759949-.5201988.2350006-.8512001.3759995-.8512001.3290024-.0472984-.0469971 1.2294998-.6579971 2.5536995-1.7399979 1.3714027-1.0350037 2.2700004-2.0690002 2.3173027-2.0220032z" fill="#aa6550"/><path d="m55.4255981 101.8160019s-.1891975.3769989-.6147995.8470001c-.4255981.4700012-1.0876999 1.0820007-1.9389 1.598999-.8512993.5169983-1.7024994.798996-2.3172989.987999-.6147995.1409988-1.0404015.1880035-1.0404015.1409988 0-.0940018 1.5606003-.3300018 3.2158012-1.3170013 1.6552011-1.0820007 2.6483003-2.3519974 2.6955987-2.2579956z" fill="#aa6550"/><path d="m60.9585991 100.5s-.0946007.1409988-.3311005.3769989c-.2363968.2350006-.5674973.5169983-1.0403976.8460007-.8985023.7050018-2.1281013 1.6460037-3.6413994 2.4930038-.7567024.4229965-1.4661026.798996-2.1281013 1.1279984-.6621017.3289948-1.3241997.5649948-1.8917007.7060013-.5675011.1409988-1.0403976.0939941-1.3713989 0-.3311005-.0940018-.4729996-.1880035-.4729996-.1880035 0-.0469971.6620979.3290024 1.7971001.0469971.5201988-.1419983 1.1349983-.3769989 1.7971001-.7059937.6620979-.3290024 1.3713989-.7050018 2.1280975-1.1290054 1.4659996-.8460007 2.7429008-1.7399979 3.6414032-2.4449997.9930991-.7049943 1.5133971-1.175995 1.5133971-1.1289979z" fill="#aa6550"/><path d="m52.6355019 21.4449005c-4.5400009-.4232006-8.5597 2.9627991-8.8908005 7.4776001-.2837029 3.7621994-.5675011 7.8536987-.5675011 9.9230003 0 4.4207001 4.398098 5.1730995 4.398098 5.1730995s-.1417999 1.3167992-.283699 2.9157982c-.2837982 3.2450027 2.1753998 6.1137009 5.4858017 6.3017998 3.2157974.1881027 6.0060005-2.2573967 6.1951981-5.4552994l1.0404015-17.7767982c.2836989-4.3736-2.9794007-8.1829014-7.3774987-8.5592003z" fill="#b78876"/><path d="m47.5755005 43.9249992s2.7901993.2821999 5.8168983-1.5519981c0 0-1.4660988 3.197998-5.9113998 2.7276993z" fill="#aa6550"/><path d="m59.6343994 31.5093994c.0946007-.046999 3.0739021-.8464985 2.9321022 2.1632996-.1419029 3.0098991-3.168602 2.2574005-3.168602 2.1632996 0-.093998.2364998-4.3265992.2364998-4.3265992z" fill="#b78876"/><path d="m60.3437996 34.7545013s.0471992.0471001.1417999.0940971c.0946007.0470009.2364998.094101.3783989.0470009.3310013-.093998.6147003-.6112976.6620026-1.1287003 0-.2821007-.0473022-.5172997-.0946007-.7523994-.0945015-.235199-.2364006-.3761978-.3782997-.4232979-.1417999-.0470009-.283699.0471001-.3310013.141098-.0472984.094101-.0472984.1411018-.0472984.1411018s-.0473022-.0470009-.0473022-.1881027c0-.0469971.0473022-.141098.1419029-.1880989.0945969-.0471001.1890984-.094101.283699-.0471001.2364998.0471001.4255981.235199.5201988.4702988.0946007.2352028.1892014.5643997.1418991.8465004-.0472984.6114006-.3782997 1.1758003-.8512001 1.2698021-.2364998.0469971-.3783989-.0470009-.4729996-.0940018-.0472984-.1410979-.0471992-.188198-.0471992-.188198z" fill="#aa6550"/><path d="m45.4473 31.3211994c0 .3292007.2364006.6114006.6147995.6584015.3310013.046999.6619987-.2352009.6619987-.5644016 0-.3291988-.2363968-.6112995-.6147995-.6583996-.3309975 0-.6147003.2352009-.6619987.5643997z" fill="#263238"/><path d="m44.8797989 30.5214996c.0945015.094101.5675011-.2820988 1.2294998-.2350998.6621017 0 1.1823006.3761997 1.2296028.2821999.0472984-.0471001-.0473022-.1882-.2364998-.3291988-.1891022-.1410999-.5674019-.3292007-.993103-.3292007-.4255981 0-.8038979.1410007-.9930992.2821007-.2364006.1410998-.283699.2821998-.2364006.3291987z" fill="#263238"/><path d="m52.3041992 31.5097008c0 .3291988.2364998.6112976.6147995.6583977.3310013.0470009.6621017-.235199.6621017-.5643978 0-.3292007-.2364998-.6114006-.6147995-.6584015-.3784026-.0000001-.6621017.2352008-.6621017.5644016z" fill="#263238"/><path d="m51.547699 30.7099991c.0946007.094101.5675011-.2821999 1.2296028-.2350998.6619987 0 1.1822968.3762016 1.2294998.2821007.0472984-.0470009-.0472031-.1881008-.2364006-.3292007-.1892014-.1410999-.5675011-.3291988-.9930992-.3291988-.4257011 0-.8040009.1410999-.993103.2821999-.1891976.1410998-.2837983.3291987-.2364998.3291987z" fill="#263238"/><path d="m48.9942017 35.7412987c0-.0469971-.4257011-.093998-1.0878029-.2350998-.1890984 0-.3309975-.0469971-.3782997-.1880989-.0472984-.1411018.0473022-.3292007.1418991-.5172997.1892014-.4233017.3310013-.8465996.5202026-1.3167992.7566986-1.8812008 1.2768974-3.3861008 1.229599-3.4331017-.0946007-.0471001-.7566986 1.457901-1.4660988 3.3390007-.1891022.4702988-.3310013.8935013-.5202026 1.3167992-.0472984.188099-.1890984.4233018-.0945969.6584016.0472984.141098.1891975.2350998.2837982.2350998.0946007.0471001.1892014.0471001.283699.0471001.6621018.0939979 1.087803.0939979 1.087803.0939979z" fill="#263238"/><path d="m50.7910995 28.2637005c.0946007.1880989.7566986.046999 1.5606003.094099.8040009.0470009 1.4659996.2350998 1.5606003.0470009.0472984-.094101-.0946007-.2350998-.3310013-.4232998-.2837982-.1410007-.7094002-.2821007-1.1823006-.3292007-.4728966 0-.8984985.094101-1.1822968.2352009-.3310012.1410999-.4729003.2821998-.4256019.3761997z" fill="#263238"/><path d="m44.5960999 28.0286999c.0946007.1410999.5675011 0 1.1349983 0 .5675011 0 1.0404015.1410999 1.1350021-.0471001.0472984-.0939999 0-.2350998-.2364998-.3761997-.1892014-.1410999-.5675011-.2821999-.9458008-.2821999-.3783989 0-.7094002.1410999-.9459.2821999-.0945014.1881008-.1890983.3292007-.1417998.4232998z" fill="#263238"/><path d="m59.9658012 31.3677006c.0472984.4702988 0 .9876003-.0946007 1.4578991-.0946007.4701996-.3782997.8935013-.8039017 1.0816002-.7566986.3762016-1.7024994-.2350998-2.0335999-.9875984-.3309975-.7995033-.2364006-1.6460018-.1417999-2.4925022.1417999-1.1286983.1891022-2.3043995 0-3.4330997-.1891975-1.1287003-.7094002-2.2572994-1.6078987-2.9627991-.8986015-.7524014-2.222702-.9876003-3.2631989-.5172997-.6620026.2821999-1.134903.8464985-1.7497025 1.2227993-.5674973.3292007-1.1823006.5643005-1.8443985.4232006-.6147995-.0939999-1.5133018-.5643005-1.3715019-1.1757011.2364998-1.4578991-.7565994-.2350998-.7092972-.4702988.0945969-.4232006.945797-1.1287003 1.3240967-1.4108009.6621017-.4703007 1.3242035-.7054996 2.0336037-.8465996 1.9389-.3292007 3.9723969-.0939999 5.7694969.6583996 1.7971001.7525005 3.4050026 2.1163006 4.1144028 3.9034004.8512001 2.0692997.7092972 3.3390007.4255981 5.5963993" fill="#263238"/><path d="m50.4604988 37.7164001c0 .141098-.5674973.2821999-1.2768974.3292007-.7094002.0471001-1.2769012-.0470009-1.2769012-.1881027 0-.141098.5675011-.2821999 1.2769012-.3291969.7094002 0 1.2768974.0469971 1.2768974.1880989z" fill="#263238"/><path d="m59.9659996 31.6502991c0 .0470009-.3782997-.046999-.9458008-.1880989-.5674973-.1881008-1.3241997-.4703007-2.1282005-.7994995-.7565994-.3292007-1.4659996-.6114006-2.1280975-.8465004-.5202026-.1881008-.8985023-.3292007-.8512001-.3761997 0-.0471001.3782997.046999.9458008.1880989.5674973.1881008 1.3241997.4703007 2.1280975.7995014.7567024.3291988 1.4661026.6112995 2.1281013.8464985.5201988.2350997.8512993.3292007.8512993.3761997z" fill="#263238"/><path d="m47.3390007 29.0636997c.4255981.0471001.7566986.3292007.8040009.7525005.1417999.7994995 0 1.598999-.3784027 2.3513985-.4729004.8936005-1.3713989 1.5990028-2.3644981 1.8812027-.5675011.1409988-1.229599.1409988-1.7498016-.1411018-.7094002-.4232979-.9459-1.3638992-.9930992-2.2103996-.0472984-.6112995-.0472984-1.2696991.283699-1.7399998.425602-.6583996 1.2769012-.8936005 2.0335007-.9405994.8040007-.0939999 2.364601.0469989 2.364601.0469989z" fill="#263238"/><path d="m50.885601 29.1576996c-.425602.0470009-.7565994.3292007-.8039017.7524014-.1418991.7994995-.0472984 1.6459999.3310013 2.3514004.4729004.9405975 1.3241997 1.6459999 2.3646011 1.9751968.5674973.1882019 1.2294998.1882019 1.7496986-.093998.7094002-.4233017.9931984-1.3638 1.0405006-2.1632996.0471992-.6114006.0471992-1.2698002-.2364998-1.7870998-.425602-.6584015-1.2296028-.9406013-2.0335007-.9876003-.8040006-.1411-2.4118994-.0470009-2.4118994-.0470009z" fill="#263238"/><path d="m51.6425018 29.2985001c0 .0470009-1.1823006.0939999-2.6010017.0939999-1.4188004-.046999-2.6011009-.0939999-2.6011009-.1881008 0-.046999 1.1823006-.0939999 2.6011009-.0939999 1.4187012-.0000001 2.6010017.0939998 2.6010017.1881008z" fill="#263238"/><path d="m59.7769012 49.2853012s0-.0470009 0-.0940018 0-.141098 0-.235199c0-.1880989.0944977-.4701996.283699-.7994003s.3782997-.7055016.5201988-1.1758003c.1418991-.4701996.1892014-1.0345993.1892014-1.6930008 0-.6583977-.0946007-1.3167992-.1418991-2.0691986 0-.1882019 0-.4233017.1418991-.6114006.0946007-.1880989.3310013-.3762016.6147995-.2821999.1417999.0470009.2364006.094101.283699.235199.0946007.0940018.0946007.2821007 0 .4232025-.1891975.235199-.4729004.235199-.7094002.141098-.4255981-.1880989-.7092972-.7524986-.5674973-1.2226982.0472984-.2352028.1891975-.4703026.4256973-.6114006.0946007-.094101.2364006-.1411018.3782997-.1411018.1419029 0 .283802 0 .425602.1411018.0946007.093998.1891975.2821999.0946007.4702988-.0946007.1880989-.2837029.2350998-.3782997.2350998-.283802 0-.5675011-.093998-.7094002-.3292007-.1892014-.1880989-.2837029-.4702988-.2364998-.7523994.0472984-.2821999.2364998-.5173988.4729996-.6583977.1890984-.1411018.4255981-.1882019.6619987-.1411018.1418991.0470009.2364998.0940018.3311005.1880989.0946007.0940018.1418991.2350998.0946007.3762016-.0473022.1411018-.1892014.235199-.283802.2821999-.1418991.0470009-.2364006.0470009-.3309975.0470009-.2364998-.0470009-.4257011-.1411018-.6148033-.2821999-.3310966-.2821007-.5674973-.7523994-.3782997-1.1757011.1417999-.3762016.5675011-.7053986 1.0404015-.6113014.1890984.0470009.4255981.1881027.4729004.4702034 0 .141098-.0473022.235199-.1418991.3291969-.0946007.094101-.1892014.1411018-.2837029.1411018-.2364998 0-.4256973-.0940018-.5674973-.1880989-.1419029-.0940018-.283802-.2350998-.3311005-.4232025-.1891022-.3292007-.0946007-.7994995.2364998-.9875984.3310013-.235199.8038979-.0471001.8984985.3292007v.0469971l-.0472984.0470009c-.4729004.235199-.9930992 0-1.1350021-.4231987-.0945969-.1882019-.0472984-.4233017.0473022-.6114006s.2364998-.2821999.4255981-.3762016c.1892014-.0940971.3784027-.0940971.5202026 0 .1418991.0470009.3310966.2350998.2837982.4232025 0 .0940971-.0946007.1880989-.1892014.1880989-.0945969.0471001-.1890984 0-.2363968 0-.1419029-.0470009-.2364998-.2350998-.2364998-.3292007-.0946007-.4702988-.0473022-.8465004 0-1.1287003.0472984-.2350998.0945969-.3761978.0945969-.3761978.0473022 0-.1418991.5643997.0473022 1.4578972.0472984.094101.0946007.1881027.1891975.2351036.0945015.0470963.2364006 0 .2364006-.0940018.0473022-.235199-.3309975-.3762016-.6147995-.235199-.283699.0940971-.5201988.4702988-.3782997.7524986.0946007.2821999.5675011.5172997.8984985.3292007l-.0472984.094101c-.0471992-.2352028-.3782997-.3763008-.5675011-.1882019-.2364006.1411018-.283699.4702988-.1417999.7524986.1417999.2351036.425602.5173035.709301.5173035.1418991 0 .2364998-.0940018.2364998-.2350998 0-.094101-.1418991-.2352028-.2837982-.2352028-.2837029-.093998-.6147003.1411018-.7566032.4703026-.0945969.2821999.0473022.6583977.3310013.8935966.1418994.0940017.3311008.1881027.4729007.1881027.1418991.0470009.3311005-.0471001.3783989-.1411018.0473022-.094101-.0946007-.235199-.2364998-.2821999s-.3309975 0-.4729004.094101c-.1891975.093998-.3309975.2821007-.3309975.5172997-.0473022.1880989.0472984.4231987.1890984.5643005.1418991.141098.3311005.235199.5201988.235199.1892014 0 .2364998-.141098.1419029-.2821999-.0946007-.094101-.3310013-.094101-.4729004.0470009-.1418991.094101-.283802.2821999-.3310013.4702988-.0946007.3762016.0945015.7994995.425602.9406013.1417999.0470009.3782997.0470009.4255981-.0470009.0946007-.094101 0-.2821999-.1892014-.3292007-.1417999-.0471001-.283699.0470009-.3782997.1881027-.0945969.141098-.1418991.3291969-.1418991.4702988.0473022.7523994.0946007 1.457798.0946007 2.1161995s-.0946007 1.2228012-.2364006 1.7401009c-.1418991.5172997-.3783989.8934975-.5675011 1.1757011-.1891975.2821999-.2837982.5643997-.3310966.7524986-.2364006.1880988-.2364006.2821006-.2364006.2821006z" fill="#e0e0e0"/><path d="m61.5266991 34.8474998c-.0472984-.2350998-.0946007-.4701996-.1891975-.6584015-.1419029-.1880989-.3311005-.3291969-.5675011-.3761978-.2364998-.0470009-.5201988.141098-.6147995.3761978-.0946007.2352028.0472984.5174026.2364998.6584015l.0471992.0471001c.0946007.0470009.1892014.0470009.2837982.0940018.1419029.0940971.2365036.3291969.1892014.5172997 0 .1881981-.0472984.376297-.0472984.5643997 0 .141098.0946007.2821999.2364006.2821999.1418991 0 .1891975-.094101.2364998-.2352028.2363967-.329197.2363967-.7994996.1891975-1.2697984z" fill="#e0e0e0"/><path d="m47.5283012 44.6767998s-.9458008 1.3638-1.0404015 2.3044014c-.0472984.6114006.3311005 2.9157982.6147995 4.4207001.1418991.8465004.5201988 1.692997.9930992 2.3983994l.6148033.8936005c.8985977 1.3167992 1.6551971 2.6805992 2.2226982 4.1385002 1.1823006 3.0098 3.2158012 8.0889015 3.2630997 8.3240013.0946007.3292007.8984985 1.7870941.8984985 1.7870941l1.087803-12.6976968 3.2157974-6.3488007c.2837029-.5643997.425602-1.1757011.4729004-1.7870979l.0946007-2.0222015c.0473022-.7524986-.2364998-1.457901-.7566986-2.0223007l-.1418991 1.8341026-5.3439026 4.7969971-6.1951981-4.1385994z" fill="#fff"/><path d="m53.4398994 50.7900009c.0473022.0471001-.6147995.235199-1.1349983 1.0346985-.5202026.7994995-.9459 2.0692024-1.2769012 3.5270996-.0472984.1411018-.0946007.2821999-.0946007.4233017l-.0472984.1880989-.1417999-.141098c-1.0876999-.8936005-1.8917007-1.8341026-2.5065002-2.4925003-.6147995-.6584015-.9458008-1.0817032-.9458008-1.0817032s.425602.3292007 1.0404015.9876022c.6147995.6114006 1.4659996 1.5519981 2.5536995 2.3984985l-.1891022.0470009c.0473022-.141098.0473022-.2821999.0946007-.4232979.3310013-1.4578018.8039017-2.7276001 1.3713989-3.5271034.283802-.4231987.6148033-.6583977.8512001-.7994995.2838019-.0939979.425701-.141098.425701-.141098z" fill="#263238"/><path d="m57.270401 54.2233009c.0472984.0470009-.4729004.7994995-1.1823006 1.9281006l-.1891022.2821999v-.3762016c0-.5172997-.1418991-1.0816994-.3310966-1.7401009-.2837029-1.0816002-.5675011-2.0691986-.9458008-2.6805992s-.8040009-.8465004-.7567024-.8935013c0 0 .0946007.0470009.283802.1410027.1890984.141098.3782997.3292007.6147995.6583977.4729004.6114006.7565994 1.5990028 1.0404015 2.6807022.1890984.6114006.3309975 1.2226982.3309975 1.7870979l-.1890984-.0471001c.709301-1.0345993 1.2767983-1.7869988 1.3241005-1.7399979z" fill="#263238"/><path d="m54.8110008 68.0971985c-.0473022 0-.3782997-3.8563004-.6620026-8.6061974-.2837982-4.7499008-.5202979-8.6062011-.4256973-8.6062011.0472984 0 .3783989 3.8563004.6620979 8.6062012.2838021 4.7498969.4729005 8.6061973.425602 8.6061973z" fill="#263238"/><path d="m42.8933983 31.6499996c-.0472984.0470009-.2837982-.4702988-.0472984-1.0816994.1892014-.6112995.6621017-.8934994.7094002-.8465004.0472984.0471001-.2837982.3763008-.4729004.9405994-.1892014.5173017-.1418992.9876004-.1892014.9876004z" fill="#e0e0e0"/><path d="m50.696701 31.9319992c-.0473022.0471001-.3782997-.3761997-.3782997-.9404984 0-.6114006.3309975-.9876003.3782997-.9406013.0472984.0470009-.0946007.4232006-.0946007.9406013-.0473022.5172997.1418992.8934994.0946007.9404984z" fill="#e0e0e0"/></g></svg>