<svg enable-background="new 0 0 24 24" height="24" viewBox="0 0 24 24" width="24" xmlns="http://www.w3.org/2000/svg"><path d="m23.6940002.0024972-6.4505996.8012168c-.2250004.027276-.3171006.300026-.1602001.460276l1.8648987 1.8649601-5.2334995 5.2334795c-.0506992.05126-.0791998.1204901-.0791998.1926308 0 .0721397.0285006.1413698.0791998.1926298l1.5377007 1.5376101c.1056995.1056995.2796001.1056995.3852997 0l5.2369002-5.2368403 1.8649006 1.8649602c.0359993.0359597.0813999.06106.1309986.0724096.0496006.0113502.1013012.0085001.1494007-.0082197.0480003-.0167303.0904007-.0466599.1222-.08635.0317993-.0397.0517998-.0875501.0576992-.1380801l.7978001-6.4472432c.0056-.041174.0017014-.083095-.0115986-.122484-.0132008-.039389-.0354004-.075177-.0648003-.1045635-.0293999-.0293864-.0652008-.0515746-.1046009-.0648274s-.0812988-.0172106-.1224995-.0115647zm-14.9469003 13.7127032c-.05126-.0507002-.1204901-.0792007-.1926298-.0792007s-.1413698.0285006-.1926298.0792007l-5.2334803 5.2369004-1.86496-1.8649006c-.03598-.0359993-.08137-.0611-.13096-.072401-.04959-.0113984-.10137-.0084992-.149418.0082015-.048044.0166988-.090403.0465984-.12222.0862999-.031818.0396996-.051806.0875988-.057674.1380997l-.8012168 6.4473c-.0204566.1772003.1261488.3237991.3034388.3034l6.45065-.8012009c.2250199-.0272999.31707-.3001003.1602402-.4602985l-1.8649602-1.8650017 5.2369204-5.2368994c.1056995-.1055994.1056995-.2795 0-.3851995z" fill="#fff"/></svg>