<svg enable-background="new -155 247 300 300" height="300" viewBox="-155 247 300 300" width="300" xmlns="http://www.w3.org/2000/svg"><path d="m97.8568878 353.500946c-7.4858322-50.0867309-50.6853027-88.500946-102.8569188-88.500946-52.1715546 0-95.3710861 38.4142151-102.8568573 88.500946-1.3807297 9.2383118-.4724884 18.6685486 2.4065018 27.5546875 2.4928131 7.6940002 5.9189835 16.9307861 10.6048203 27.0153503 3.5579529 7.657196 9.6241379 19.6215515 27.8720779 44.4615173 6.4614105 8.7955322 14.4368782 19.1913757 24.3876534 31.6015015 8.9969372 11.2205201 21.7092365 26.709839 37.5858039 44.8659974 15.8765678-18.1561584 28.5889301-33.6454773 37.585804-44.8659973 9.9507751-12.4101257 17.9263077-22.8059692 24.3877182-31.6015625 18.2480049-24.8399048 24.3140602-36.8042603 27.8720131-44.4614563 4.6858368-10.0845642 8.1120682-19.3213501 10.6048203-27.0153503 2.8790516-8.886139 3.7872929-18.3163758 2.4065632-27.5546876zm-102.5938616 52.8894654c-29.2018127 0-52.8745384-22.4771729-52.8745384-50.2041626 0-27.7269287 23.6727257-50.204071 52.8745384-50.204071s52.8745346 22.4771423 52.8745346 50.204071c.000001 27.7269897-23.6727228 50.2041626-52.8745346 50.2041626z" fill="#003d87"/></svg>