<svg fill="none" height="64" viewBox="0 0 64 64" width="64" xmlns="http://www.w3.org/2000/svg"><path d="m32 57c-13.8058 0-25-11.1942-25-25s11.1942-25 25-25 25 11.1942 25 25-11.1942 25-25 25zm8.0413-25.385-12.1875-8.8672c-.0668-.048-.1456-.0767-.2276-.0829-.0821-.0061-.1642.0104-.2375.0479-.0732.0375-.1347.0945-.1777.1646-.043.0702-.0658.1508-.0659.2331v17.7232c-.0003.0824.0223.1634.0652.2338s.1044.1275.1778.1651c.0734.0375.1558.054.238.0477.0822-.0064.161-.0354.2277-.0839l12.1875-8.8616c.0576-.0407.1045-.0946.137-.1573.0324-.0626.0493-.1321.0493-.2026s-.0169-.14-.0493-.2027c-.0325-.0626-.0794-.1165-.137-.1572z" fill="#00a87b"/><circle cx="32" cy="32" r="31.5" stroke="#00a87b"/></svg>