<svg enable-background="new 0 0 100 100" height="100" viewBox="0 0 100 100" width="100" xmlns="http://www.w3.org/2000/svg"><path d="m52.0382042 81.7364807-18.8748169-.3451843c-6.1112804-.1202698-12.2377453.1198425-18.2291698-1.1264038-9.1143194-1.8619385-9.7600103-10.9914856-10.4356695-18.6494446-.9309692-10.7661438-.5705719-21.7276917 1.1862946-32.4039307.9918213-5.9905396 4.8950047-9.565094 10.9311371-9.9540405 20.3763714-1.4116821 40.8882294-1.2444153 61.2194519-.5857849 2.1472473.0603638 4.3092194.3903198 6.4264984.7659607 10.4513702 1.8319702 10.7062073 12.1777954 11.383728 20.8870239.6756134 8.7991028.3903656 17.6433716-.9010315 26.3825378-1.0360565 7.2358398-3.0182953 13.303772-11.3837128 13.8895264-10.481308.7659912-20.7220497 1.3826599-31.2328377 1.1862793.0004602-.0465393-.0599035-.0465393-.0898718-.0465393zm-11.0965729-18.3190002c7.8985443-4.5350342 15.6463776-8.9945374 23.4997444-13.4991455-7.9132881-4.5350647-15.6463814-8.9945068-23.4997444-13.4991455z" fill="#003d87"/></svg>