<svg enable-background="new 0 0 100 100" height="100" viewBox="0 0 100 100" width="100" xmlns="http://www.w3.org/2000/svg"><path d="m78.3076782 4.000061h-56.6153259c-9.8291321 0-17.6923523 7.8632202-17.6923523 17.6923523v56.6152344c0 9.8291321 7.8632202 17.6922913 17.6923523 17.6922913h56.6153259c9.8290406 0 17.6923218-7.8631592 17.6923218-17.6922913v-56.6152954c0-9.829071-7.8633423-17.6922913-17.6923523-17.6922913zm5.1111298 10.6153565h1.965744v15.7264709h-15.7264862v-15.7264709zm-46.3930969 25.948761c2.7520752-3.9316711 7.8631897-6.6838074 12.9743195-6.6838074 5.1111145 0 10.2222595 2.7521362 12.97435 6.6838074 1.965744 2.7520752 3.1452789 5.8973999 3.1452789 9.4358826 0 9.0426331-7.4700775 16.1195679-16.1196289 16.1195679-8.6495819 0-16.1196136-7.0768738-16.1196136-16.1195679-.0000764-3.5384827 1.1794585-6.6838074 3.1452941-9.4358826zm49.931549 37.7434692c0 4.7180176-3.9316711 8.6496582-8.6495819 8.6496582h-56.6153259c-4.7179413 0-8.6496124-3.9316406-8.6496124-8.6496582v-37.7434692h13.7606354c-1.1795044 2.7520752-1.965744 6.2905579-1.965744 9.4358826 0 13.7606201 11.4016876 25.162323 25.1623383 25.162323s25.1623383-11.4017029 25.1623383-25.162323c0-3.1453247-.786377-6.6838684-1.965744-9.4358826h13.7605896z" fill="#003d87"/></svg>