<?xml version="1.0" encoding="utf-8"?>
<!-- Generator: Adobe Illustrator 25.4.1, SVG Export Plug-In . SVG Version: 6.00 Build 0)  -->
<svg version="1.1" id="Layer_1" xmlns="http://www.w3.org/2000/svg" xmlns:xlink="http://www.w3.org/1999/xlink" x="0px" y="0px"
	 width="50px" height="50px" viewBox="0 0 50 50" style="enable-background:new 0 0 50 50;" xml:space="preserve">
<style type="text/css">
	.st0{fill:#00A87B;}
	.st1{fill:#FFFFFF;}
</style>
<circle class="st0" cx="25.5" cy="25.5" r="14.5"/>
<path class="st1" d="M25,50C11.1941996,50,0,38.8058014,0,25S11.1941996,0,25,0s25,11.1941996,25,25S38.8058014,50,25,50z
	 M33.0413017,24.6149998l-12.1875019-8.8671999c-0.0667992-0.0480003-0.1455994-0.0767002-0.2276001-0.0829
	c-0.0820999-0.0060997-0.1641998,0.0103998-0.2374992,0.0479002c-0.0732002,0.0375004-0.1347008,0.0944996-0.1777,0.1646004
	c-0.0430012,0.0702-0.0657997,0.1507998-0.0659008,0.2330999v17.7231979
	c-0.0002995,0.0824013,0.0223007,0.1634026,0.0652008,0.2338028s0.1043987,0.1274986,0.1777992,0.1651001
	c0.0734005,0.0374985,0.1557999,0.053997,0.2380009,0.047699c0.0821991-0.0064011,0.1609993-0.0354004,0.2276993-0.0839005
	l12.1875019-8.861599c0.0575981-0.0407009,0.1044998-0.0946007,0.1369972-0.1573009
	c0.032402-0.0625992,0.0493011-0.1320992,0.0493011-0.2026005c0-0.0704994-0.0168991-0.1399994-0.0493011-0.2026997
	C33.1458015,24.7096004,33.0988998,24.6557007,33.0413017,24.6149998z"/>
</svg>
