<?xml version="1.0" encoding="utf-8"?>
<!-- Generator: Adobe Illustrator 19.0.0, SVG Export Plug-In . SVG Version: 6.00 Build 0)  -->
<svg version="1.1" id="Layer_1" xmlns="http://www.w3.org/2000/svg" xmlns:xlink="http://www.w3.org/1999/xlink" x="0px" y="0px"
	 width="300px" height="300px" viewBox="-105 107 300 300" style="enable-background:new -105 107 300 300;" xml:space="preserve">
<style type="text/css">
	.st0{fill:#2d8cff;}
</style>
<g>
	<path class="st0" d="M75.6302872,226.3804016C66.8604889,217.6105194,56.6574364,213.2470398,45,213.2470398
		c-4.1527672,0-8.1201515,0.5672607-11.90728,1.6792297c4.2677994,4.2948151,6.4001884,9.2980957,6.4001884,15.022644
		c0,5.7411957-2.1489639,10.766098-6.4574966,15.0746307s-9.3439579,6.4680176-15.0851593,6.4680176
		c-5.7117472,0-10.7132616-2.1309509-15.0173321-6.4057465c-1.1100358,3.7892456-1.6752779,7.7615051-1.6752779,11.9248657
		c0,11.6574402,4.3635654,21.8605042,13.1120701,30.6089172C23.1395092,296.3894653,33.3424797,300.7529602,45,300.7529602
		c11.6574364,0,21.8818665-4.3849487,30.6302872-13.1333618s13.1119843-18.9514771,13.1119843-30.6089172
		C88.7422714,245.3318787,84.3787079,235.1288147,75.6302872,226.3804016z"/>
	<path class="st0" d="M125.396843,192.2055817C101.4080048,175.3976135,75.007988,167.0023651,45,167.0023651
		s-56.4080086,8.3952484-80.3968506,25.2032166C-59.4031868,208.9959869-76.1935806,230.6087341-87,257.0087585
		c10.8064194,26.4000244,27.5968132,47.9952698,51.6031532,64.7856445
		C-11.4080076,338.6023865,14.9920092,346.9976196,45,346.9976196s56.4080048-9.5920105,80.396843-25.2032166
		C149.403183,306.2008057,166.1935883,283.408783,177,257.0087585
		C166.1935883,230.6087341,149.403183,208.9959869,125.396843,192.2055817z M91.3139267,303.3140259
		C79.4151459,316.5521545,62.1978531,323.1711121,45,323.1711121c-17.197937,0-33.0953217-6.6189575-46.3140106-19.8570862
		C-14.5521412,290.0758057-21.1712055,274.197937-21.1712055,257c0-17.2172852,7.9389734-33.0953217,19.857193-46.3334503
		C10.5847692,197.4478607,27.802063,190.8288727,45,190.8288727c17.1978531,0,33.0953217,7.9388885,46.3139267,19.837677
		C104.5521393,222.5847626,111.1712036,239.7827148,111.1712036,257
		C111.1712036,274.197937,103.2321472,290.0758972,91.3139267,303.3140259z"/>
</g>
</svg>
