<?xml version="1.0" encoding="utf-8"?>
<!-- Generator: Adobe Illustrator 19.0.0, SVG Export Plug-In . SVG Version: 6.00 Build 0)  -->
<svg version="1.1" id="Layer_1" xmlns="http://www.w3.org/2000/svg" xmlns:xlink="http://www.w3.org/1999/xlink" x="0px" y="0px"
	 width="300px" height="300px" viewBox="-155 247 300 300" style="enable-background:new -155 247 300 300;" xml:space="preserve">
<style type="text/css">
	.st0{fill:#003d87;}
</style>
<path class="st0" d="M97.8568878,353.500946C90.3710556,303.4142151,47.1715851,265-5.000031,265
	c-52.1715546,0-95.3710861,38.4142151-102.8568573,88.500946c-1.3807297,9.2383118-0.4724884,18.6685486,2.4065018,27.5546875
	c2.4928131,7.6940002,5.9189835,16.9307861,10.6048203,27.0153503c3.5579529,7.657196,9.6241379,19.6215515,27.8720779,44.4615173
	c6.4614105,8.7955322,14.4368782,19.1913757,24.3876534,31.6015015C-33.5888977,495.3545227-20.8765984,510.8438416-5.000031,529
	c15.8765678-18.1561584,28.5889301-33.6454773,37.585804-44.8659973
	c9.9507751-12.4101257,17.9263077-22.8059692,24.3877182-31.6015625
	c18.2480049-24.8399048,24.3140602-36.8042603,27.8720131-44.4614563
	c4.6858368-10.0845642,8.1120682-19.3213501,10.6048203-27.0153503
	C98.3293762,372.1694946,99.2376175,362.7392578,97.8568878,353.500946z M-4.7369738,406.3904114
	c-29.2018127,0-52.8745384-22.4771729-52.8745384-50.2041626c0-27.7269287,23.6727257-50.204071,52.8745384-50.204071
	s52.8745346,22.4771423,52.8745346,50.204071C48.1375618,383.9132385,24.464838,406.3904114-4.7369738,406.3904114z"/>
</svg>
