<?xml version="1.0" encoding="utf-8"?>
<!-- Generator: Adobe Illustrator 19.0.0, SVG Export Plug-In . SVG Version: 6.00 Build 0)  -->
<svg version="1.1" id="Layer_1" xmlns="http://www.w3.org/2000/svg" xmlns:xlink="http://www.w3.org/1999/xlink" x="0px" y="0px"
	 width="300px" height="300px" viewBox="-105 107 300 300" style="enable-background:new -105 107 300 300;" xml:space="preserve">
<style type="text/css">
	.st0{fill:#2d8cff;}
</style>
<g>
	<path class="st0" d="M45,191.6239014c15.4735985,0,29.7772522,7.1429901,41.6705627,17.8487549
		c11.9109802,10.7233582,17.8664322,26.197052,17.8664322,41.6881561c0,7.6319733-1.743866,14.9730682-4.7917252,21.8847198
		l35.6477814,35.6477966C154.1396332,293.6426697,167.764267,273.7323608,177,251.1695557
		c-10.8064117-26.4000092-27.596817-48.0127716-51.603157-64.8031616C101.4080048,169.5584106,75.007988,161.1631775,45,161.1631775
		c-17.3608532,0-33.507576,2.8288116-48.684967,8.4521179l26.3583603,26.3583679
		C29.7367783,193.0791168,37.3691864,191.6239014,45,191.6239014z"/>
	<path class="st0" d="M152.5746765,356.0115967L-59.7471123,143.6898041l-14.2986031,14.2986908l32.7441635,32.7441559
		C-62.1752052,206.8512726-77.1054459,226.9971924-87,251.1695557
		c10.8064194,26.4000244,27.5968132,47.9952698,51.6031532,64.785675
		C-11.4080076,332.7631836,14.9920092,341.1584473,45,341.1584473c19.1401443,0,36.8029327-3.926239,53.3163834-10.8078613
		l39.9596024,39.9595947L152.5746765,356.0115967z M45,310.6977234c-15.4736843,0-29.7772484-5.9553833-41.6706429-17.866272
		c-11.9108992-11.9109802-17.8663502-26.1969604-17.8663502-41.670639c0-9.3886566,2.6362829-18.3300323,7.0906467-26.5729523
		l18.8071575,18.8071594c-0.6680746,2.516861-1.0371609,5.1098938-1.0371609,7.7657928
		c0,9.0124054,3.4686193,17.3330841,10.405942,24.270401C27.6567326,282.3685303,35.9875984,285.8371582,45,285.8371582
		c2.6542892,0,5.3074875-0.3092651,7.8920174-0.9109497l19.1911354,19.1911621
		C63.7599487,308.4944763,54.3803101,310.6977234,45,310.6977234z"/>
	<path class="st0" d="M79.6763535,251.1608124c0-9.0225983-3.4686203-18.0349884-10.4060287-24.2805939
		C62.3432655,220.6447906,54.0124016,216.4844513,45,216.4844513c-0.590065,0-1.179966,0.0167542-1.7693596,0.0464478
		l36.3906746,36.390686C79.6564102,252.3376617,79.6763535,251.7508698,79.6763535,251.1608124z"/>
</g>
</svg>
