<?xml version="1.0" encoding="utf-8"?>
<!-- Generator: Adobe Illustrator 25.4.1, SVG Export Plug-In . SVG Version: 6.00 Build 0)  -->
<svg version="1.1" id="Layer_1" xmlns="http://www.w3.org/2000/svg" xmlns:xlink="http://www.w3.org/1999/xlink" x="0px" y="0px"
	 width="24px" height="24px" viewBox="0 0 24 24" style="enable-background:new 0 0 24 24;" xml:space="preserve">
<style type="text/css">
	.st0{fill:#FFFFFF;}
</style>
<path class="st0" d="M23.6940002,0.0024972L17.2434006,0.803714C17.0184002,0.83099,16.9263,1.10374,17.0832005,1.26399
	l1.8648987,1.8649601l-5.2334995,5.2334795c-0.0506992,0.05126-0.0791998,0.1204901-0.0791998,0.1926308
	c0,0.0721397,0.0285006,0.1413698,0.0791998,0.1926298l1.5377007,1.5376101c0.1056995,0.1056995,0.2796001,0.1056995,0.3852997,0
	L20.8745003,5.04846l1.8649006,1.8649602c0.0359993,0.0359597,0.0813999,0.06106,0.1309986,0.0724096
	c0.0496006,0.0113502,0.1013012,0.0085001,0.1494007-0.0082197c0.0480003-0.0167303,0.0904007-0.0466599,0.1222-0.08635
	C23.1737995,6.8515601,23.1938,6.80371,23.1996994,6.75318l0.7978001-6.4472432
	c0.0056-0.041174,0.0017014-0.083095-0.0115986-0.122484c-0.0132008-0.039389-0.0354004-0.075177-0.0648003-0.1045635
	c-0.0293999-0.0293864-0.0652008-0.0515746-0.1046009-0.0648274S23.7352009-0.0031487,23.6940002,0.0024972z M8.7470999,13.7152004
	c-0.05126-0.0507002-0.1204901-0.0792007-0.1926298-0.0792007s-0.1413698,0.0285006-0.1926298,0.0792007L3.12836,18.9521008
	L1.2634,17.0872002c-0.03598-0.0359993-0.08137-0.0611-0.13096-0.072401C1.08285,17.0034008,1.03107,17.0063,0.983022,17.0230007
	c-0.048044,0.0166988-0.090403,0.0465984-0.12222,0.0862999c-0.031818,0.0396996-0.051806,0.0875988-0.057674,0.1380997
	l-0.8012168,6.4473c-0.0204566,0.1772003,0.1261488,0.3237991,0.3034388,0.3034L6.756,23.1968994
	c0.2250199-0.0272999,0.31707-0.3001003,0.1602402-0.4602985L5.05128,20.8715992l5.2369204-5.2368994
	c0.1056995-0.1055994,0.1056995-0.2795,0-0.3851995L8.7470999,13.7152004z"/>
</svg>
