<?xml version="1.0" encoding="utf-8"?>
<!-- Generator: Adobe Illustrator 25.4.1, SVG Export Plug-In . SVG Version: 6.00 Build 0)  -->
<svg version="1.1" id="Layer_1" xmlns="http://www.w3.org/2000/svg" xmlns:xlink="http://www.w3.org/1999/xlink" x="0px" y="0px"
	 width="24px" height="24px" viewBox="0 0 24 24" style="enable-background:new 0 0 24 24;" xml:space="preserve">
<style type="text/css">
	.st0{fill:#00A87B;}
</style>
<path class="st0" d="M4.2222099,19.7775002c0.46387,0.4645996,1.0149603,0.8328991,1.6216102,1.0837994
	S7.1007199,21.2406998,7.7572098,21.2395c0.65662,0.0011997,1.3070107-0.1273994,1.9138203-0.3782997
	c0.6067696-0.2509003,1.1580696-0.6191006,1.6221695-1.0837002l2.8280001-2.8290005l-1.4139996-1.4139996l-2.8279896,2.8290005
	C9.3156796,18.9244995,8.5528803,19.2395,7.75771,19.2395c-0.7951798,0-1.55797-0.3150005-2.1215-0.8759995
	c-0.5615001-0.5632-0.8768001-1.3261013-0.8768001-2.1215c0-0.7953005,0.3153-1.5582008,0.8768001-2.121501l2.829-2.8280001
	l-1.414-1.41397l-2.829,2.8279705c-0.9361999,0.9385004-1.4619598,2.21-1.4619598,3.5355005
	C2.7602501,17.5676003,3.28601,18.8390999,4.2222099,19.7775002z M19.7782001,11.2924995
	c0.9356995-0.9386997,1.4610996-2.2100496,1.4610996-3.5354695c0-1.3254099-0.5254002-2.5967798-1.4610996-3.5355
	c-0.9384995-0.9361899-2.2098999-1.4619501-3.5354996-1.4619501S13.6457005,3.2853401,12.7072001,4.22153l-2.8279896,2.829
	l1.4139891,1.414l2.8280001-2.829c0.5635004-0.5609999,1.3263006-0.8759699,2.121501-0.8759699s1.5579987,0.31497,2.1215,0.8759699
	c0.5614986,0.5632801,0.8767986,1.32617,0.8767986,2.1215c0,0.7953401-0.3153,1.5582299-0.8767986,2.1214995l-2.8290005,2.8279705
	l1.4139996,1.4139996L19.7782001,11.2924995z"/>
<path class="st0" d="M8.46383,16.9494991l-1.415-1.4139996L15.5358,7.0495l1.4140005,1.4150004L8.46383,16.9494991z"/>
</svg>
