<?xml version="1.0" encoding="utf-8"?>
<!-- Generator: Adobe Illustrator 25.4.1, SVG Export Plug-In . SVG Version: 6.00 Build 0)  -->
<svg version="1.1" id="Layer_1" xmlns="http://www.w3.org/2000/svg" xmlns:xlink="http://www.w3.org/1999/xlink" x="0px" y="0px"
	 width="29px" height="28px" viewBox="0 0 29 28" style="enable-background:new 0 0 29 28;" xml:space="preserve">
<style type="text/css">
	.st0{fill-rule:evenodd;clip-rule:evenodd;fill:#FFFFFF;}
</style>
<path class="st0" d="M14.3999004,0c7.7320004,0,14,6.2680101,14,14c0,7.7320004-6.2679996,14-14,14
	C6.6679201,28,0.399902,21.7320004,0.399902,14C0.399902,6.2680101,6.6679201,0,14.3999004,0z M14.3999004,25.8999996
	c0.7090998,0,1.9162998-0.6294003,3.0714989-2.9396992c0.5174999-1.0349998,0.9549999-2.2900009,1.2723007-3.7082005h-8.6876001
	c0.3172998,1.4181995,0.7547998,2.6732006,1.2723999,3.7082005C12.4835997,25.2705994,13.6907997,25.8999996,14.3999004,25.8999996z
	 M9.6930504,17.1520996C9.5678396,16.1525002,9.4998999,15.0967999,9.4998999,14
	c0-1.0965996,0.0679102-2.1520004,0.1930704-3.1513996h9.4138298c0.1252003,0.9993992,0.1931,2.0548,0.1931,3.1513996
	c0,1.0967999-0.0678997,2.1525002-0.1931,3.1520996H9.6930504z M20.8906994,19.2521
	c-0.472599,2.3337002-1.2507,4.3546009-2.2350998,5.8642998c2.809-1.0760002,5.1061001-3.1861,6.4256001-5.8642998H20.8906994z
	 M25.8684006,17.1867008c-0.085701-0.0226002-0.1757011-0.0346012-0.2685013-0.0346012h-4.3780994
	C21.3383007,16.1389999,21.3999004,15.0839005,21.3999004,14c0-1.0836-0.0615997-2.1385002-0.1781006-3.1513996h4.6562996
	c0.2749996,1.0036993,0.4218006,2.0604,0.4218006,3.1513996C26.2999001,15.1037998,26.1495991,16.1725006,25.8684006,17.1867008z
	 M7.5780401,17.1520996H2.92184C2.64678,16.1480999,2.4999001,15.0911999,2.4999001,14
	c0-1.0909996,0.1468198-2.1477003,0.4217699-3.1513996H7.57796C7.4614601,11.8614998,7.3999,12.9164,7.3999,14
	C7.3999,15.0839005,7.4614902,16.1389999,7.5780401,17.1520996z M3.7186401,19.2521h4.1905098
	c0.4725494,2.3337002,1.2506294,4.3546009,2.2350502,5.8642998C7.3351998,24.0403996,5.0380802,21.9302998,3.7186401,19.2521z
	 M10.0559998,8.74858h8.6877995c-0.3171997-1.4184899-0.7549-2.67377-1.2723999-3.70893
	c-1.1551991-2.3102601-2.3623991-2.9396501-3.0714989-2.9396501c-0.7091007,0-1.9163008,0.62939-3.0714006,2.9396501
	C10.8108997,6.07481,10.3732004,7.33009,10.0559998,8.74858z M20.8908005,8.74858h4.1906986
	c-1.3193989-2.6785898-3.6166992-4.7889099-6.4258995-5.8650198C19.6401005,4.3934002,20.4181995,6.4145699,20.8908005,8.74858z
	 M10.1442003,2.8835599C9.1596899,4.3934002,8.3815603,6.4145699,7.9090199,8.74858h-4.19069
	C5.0377102,6.0699902,7.33498,3.9596701,10.1442003,2.8835599z"/>
</svg>
