<svg width="64" height="64" viewBox="0 0 64 64" fill="none" xmlns="http://www.w3.org/2000/svg">
<path d="M32 57C18.1942 57 7 45.8058 7 32C7 18.1942 18.1942 7 32 7C45.8058 7 57 18.1942 57 32C57 45.8058 45.8058 57 32 57ZM40.0413 31.615L27.8538 22.7478C27.787 22.6998 27.7082 22.6711 27.6262 22.6649C27.5441 22.6588 27.462 22.6753 27.3887 22.7128C27.3155 22.7503 27.254 22.8073 27.211 22.8774C27.168 22.9476 27.1452 23.0282 27.1451 23.1105V40.8337C27.1448 40.9161 27.1674 40.9971 27.2103 41.0675C27.2532 41.1379 27.3147 41.195 27.3881 41.2326C27.4615 41.2701 27.5439 41.2866 27.6261 41.2803C27.7083 41.2739 27.7871 41.2449 27.8538 41.1964L40.0413 32.3348C40.0989 32.2941 40.1458 32.2402 40.1783 32.1775C40.2107 32.1149 40.2276 32.0454 40.2276 31.9749C40.2276 31.9044 40.2107 31.8349 40.1783 31.7722C40.1458 31.7096 40.0989 31.6557 40.0413 31.615Z" fill="#00A87B"/>
<circle cx="32" cy="32" r="31.5" stroke="#00A87B"/>
</svg>
