<?xml version="1.0" encoding="utf-8"?>
<!-- Generator: Adobe Illustrator 25.4.1, SVG Export Plug-In . SVG Version: 6.00 Build 0)  -->
<svg version="1.1" id="Layer_1" xmlns="http://www.w3.org/2000/svg" xmlns:xlink="http://www.w3.org/1999/xlink" x="0px" y="0px"
	 width="100px" height="100px" viewBox="0 0 100 100" style="enable-background:new 0 0 100 100;" xml:space="preserve">
<style type="text/css">
	.st0{fill:#003d87;}
</style>
<path id="XMLID_30_" class="st0" d="M78.3076782,4.000061H21.6923523C11.8632202,4.000061,4,11.8632812,4,21.6924133v56.6152344
	c0,9.8291321,7.8632202,17.6922913,17.6923523,17.6922913h56.6153259C88.1367188,95.999939,96,88.1367798,96,78.3076477V21.6923523
	c0-9.829071-7.8633423-17.6922913-17.6923523-17.6922913H78.3076782z M83.418808,14.6154175h1.965744v15.7264709H69.6580658
	V14.6154175H83.418808z M37.0257111,40.5641785c2.7520752-3.9316711,7.8631897-6.6838074,12.9743195-6.6838074
	c5.1111145,0,10.2222595,2.7521362,12.97435,6.6838074c1.965744,2.7520752,3.1452789,5.8973999,3.1452789,9.4358826
	c0,9.0426331-7.4700775,16.1195679-16.1196289,16.1195679c-8.6495819,0-16.1196136-7.0768738-16.1196136-16.1195679
	C33.8803406,46.4615784,35.0598755,43.3162537,37.0257111,40.5641785z M86.9572601,78.3076477
	c0,4.7180176-3.9316711,8.6496582-8.6495819,8.6496582H21.6923523c-4.7179413,0-8.6496124-3.9316406-8.6496124-8.6496582V40.5641785
	h13.7606354c-1.1795044,2.7520752-1.965744,6.2905579-1.965744,9.4358826c0,13.7606201,11.4016876,25.162323,25.1623383,25.162323
	s25.1623383-11.4017029,25.1623383-25.162323c0-3.1453247-0.786377-6.6838684-1.965744-9.4358826h13.7605896L86.9572601,78.3076477z
	"/>
</svg>
