<?xml version="1.0" encoding="utf-8"?>
<!-- Generator: Adobe Illustrator 25.4.1, SVG Export Plug-In . SVG Version: 6.00 Build 0)  -->
<svg version="1.1" id="Layer_1" xmlns="http://www.w3.org/2000/svg" xmlns:xlink="http://www.w3.org/1999/xlink" x="0px" y="0px"
	 width="100px" height="100px" viewBox="0 0 100 100" style="enable-background:new 0 0 100 100;" xml:space="preserve">
<style type="text/css">
	.st0{fill:#003d87;}
</style>
<path id="XMLID_30_" class="st0" d="M93.3810425,14.2840576c-2.6730957,1.7121887-8.8105164,4.2003174-11.8373108,4.2003174
	v0.0050964C78.0876007,14.8790283,73.221817,12.625,67.8255005,12.625c-10.480835,0-18.979599,8.4987793-18.979599,18.9754944
	c0,1.4556885,0.1686707,2.8755188,0.4804382,4.2371216h-0.0030823c-14.2170563-0.3730774-29.766098-7.4990234-39.1265717-19.6951599
	c-5.7551117,9.9615479-0.7748413,21.0403748,5.756134,25.0771484c-2.2355804,0.1686707-6.3510437-0.2575989-8.2881927-2.1476746
	c-0.1298218,6.6117249,3.0492859,15.3721924,14.6412811,18.5502625c-2.2325287,1.2011108-6.1844177,0.8566284-7.9027863,0.6011047
	c0.6031189,5.5812988,8.4190063,12.8779602,16.9658356,12.8779602C28.3227234,74.6248474,16.8615875,81.0157776,4,78.9825745
	C12.7348633,84.2970581,22.9152069,87.375,33.6904297,87.375c30.6206665,0,54.4006195-24.8164673,53.1207886-55.4310303
	c-0.0050964-0.0337219-0.0050964-0.0674744-0.0081635-0.1042786c0.003067-0.0787048,0.0081635-0.1574097,0.0081635-0.2391968
	c0-0.0950928-0.0081635-0.1849976-0.0112305-0.2770081C89.5876007,29.4170227,93.3278961,26.0447388,96,21.6062622
	c-1.5496979,0.8535461-6.1987762,2.5626831-10.5247955,2.9869385
	C88.2515564,23.0946045,92.3649597,18.1868896,93.3810425,14.2840576"/>
</svg>
