<?xml version="1.0" encoding="utf-8"?>
<!-- Generator: Adobe Illustrator 25.4.1, SVG Export Plug-In . SVG Version: 6.00 Build 0)  -->
<svg version="1.1" id="Layer_1" xmlns="http://www.w3.org/2000/svg" xmlns:xlink="http://www.w3.org/1999/xlink" x="0px" y="0px"
	 width="100px" height="100px" viewBox="0 0 100 100" style="enable-background:new 0 0 100 100;" xml:space="preserve">
<style type="text/css">
	.st0{fill:#003d87;}
</style>
<path class="st0" d="M52.0382042,81.7364807l-18.8748169-0.3451843c-6.1112804-0.1202698-12.2377453,0.1198425-18.2291698-1.1264038
	C5.8198981,78.4029541,5.1742072,69.273407,4.498548,61.615448C3.5675788,50.8493042,3.9279761,39.8877563,5.6848426,29.2115173
	c0.9918213-5.9905396,4.8950047-9.565094,10.9311371-9.9540405c20.3763714-1.4116821,40.8882294-1.2444153,61.2194519-0.5857849
	c2.1472473,0.0603638,4.3092194,0.3903198,6.4264984,0.7659607c10.4513702,1.8319702,10.7062073,12.1777954,11.383728,20.8870239
	c0.6756134,8.7991028,0.3903656,17.6433716-0.9010315,26.3825378c-1.0360565,7.2358398-3.0182953,13.303772-11.3837128,13.8895264
	c-10.481308,0.7659912-20.7220497,1.3826599-31.2328377,1.1862793
	C52.1285362,81.7364807,52.0681725,81.7364807,52.0382042,81.7364807z M40.9416313,63.4174805
	c7.8985443-4.5350342,15.6463776-8.9945374,23.4997444-13.4991455c-7.9132881-4.5350647-15.6463814-8.9945068-23.4997444-13.4991455
	V63.4174805z"/>
</svg>
